<svg xmlns="http://www.w3.org/2000/svg" viewBox="0 0 460.29019 408.77803"><defs><style>.cls-1{fill:#e0e0e0;}.cls-2{fill:#f5f5f5;}.cls-3{opacity:0.8;}.cls-4{fill:#ebebeb;}.cls-10,.cls-11,.cls-4{fill-rule:evenodd;}.cls-5{fill:#263238;}.cls-11,.cls-6{fill:#fff;}.cls-10,.cls-7{fill:#e8505b;}.cls-16,.cls-8{opacity:0.3;}.cls-9{fill:#fafafa;}.cls-12,.cls-18{opacity:0.4;}.cls-13{fill:#ffbe9d;}.cls-14{fill:#eb996e;}.cls-15{fill:#455a64;}.cls-17{opacity:0.2;}</style></defs><title>3255466</title><g id="Background_Complete" data-name="Background Complete"><path class="cls-1" d="M424.43839,132.1729a4.784,4.784,0,0,1,1.498.4687,6.30645,6.30645,0,0,1,2.9855,3.0218,6.385,6.385,0,0,1,.6093,2.9187,6.48608,6.48608,0,0,1-1.004,3.2722,6.49337,6.49337,0,0,1-2.8663,2.4631,6.4651,6.4651,0,0,1-7.5145-1.6852,6.495,6.495,0,0,1-1.5403-3.4518,6.48584,6.48584,0,0,1,.4898-3.3879,6.38614,6.38614,0,0,1,1.7979-2.3788,6.30724,6.30724,0,0,1,3.99-1.4568,4.78381,4.78381,0,0,1,1.5546.216c-.0069.0445-.5541-.1103-1.551-.0746a6.31681,6.31681,0,0,0-3.8282,1.5123,6.19023,6.19023,0,0,0-2.1207,5.5272,6.19019,6.19019,0,0,0,1.4766,3.2605,6.13893,6.13893,0,0,0,7.1027,1.5928,6.189,6.189,0,0,0,2.727-2.3172,6.19127,6.19127,0,0,0,.4435-5.9032,6.31548,6.31548,0,0,0-2.8156-3.0027C424.98659,132.3098,424.42549,132.216,424.43839,132.1729Z" transform="translate(-19.8549 -41.18551)"/><path class="cls-1" d="M429.51979,125.391a1.37278,1.37278,0,0,1-.0137-.2224c-.0038-.1657-.009-.3879-.0158-.6756-.0085-.6195-.0208-1.5121-.0369-2.6706l.0453.0564c-1.4776-.3224-3.4205-.7464-5.7705-1.2593l.1034-.0503c-.4599.9785-.9709,2.0661-1.5175,3.2295l-.0274.0581-.065.0028a14.4524,14.4524,0,0,0-3.7621.6677l-.06859.0219-.05171-.0512c-.7909-.7829-1.6469-1.6305-2.53729-2.5119l.16069.0175q-2.3532,1.4988-4.9815,3.1726l.0582-.169c.3727,1.0405.7832,2.1865,1.204,3.3612l.03061.0855-.062.0671a14.36535,14.36535,0,0,0-2.189,3.1184l-.04351.0842-.0954.0003c-1.10609.0039-2.326.0083-3.5683.0127l.1577-.1265c-.4038,1.8108-.8392,3.7636-1.28549,5.765l-.09261-.1898c1.0043.4758,2.1072.9984,3.22461,1.5278l.09439.0448.0042.1046a14.40271,14.40271,0,0,0,.6557,3.7472l.0322.1015-.0754.0757c-.7886.7929-1.6489,1.6578-2.5178,2.5314l.0242-.2209,3.1632,4.9881-.2132-.0734c1.0623-.3784,2.2088-.7869,3.3636-1.1981l.1037-.037.0806.0748a14.31674,14.31674,0,0,0,3.1055,2.188l.0015.0008.0008.0004c.04381.072-.09719-.1605.0985.1614l.0001.0035v.0492l.00021.0562.00019.1124.0005.2246.0009.4486.0018.895q.0018.89325.00361,1.7791l-.14181-.1767q2.9214.6561,5.7635,1.2941l-.2019.0983q.7737-1.6275,1.532-3.223l.0464-.0977.1079-.0041a14.30745,14.30745,0,0,0,3.74791-.6497l.10179-.032.0755.0752q1.2825,1.27875,2.5281,2.5207l-.2149-.0235q2.55615-1.6161,4.9919-3.156l-.068.1974q-.60735-1.71255-1.1932-3.3648l-.0331-.0934.0672-.0722a14.33051,14.33051,0,0,0,2.198-3.1096l.0443-.0848h.095c1.2236-.0006,2.4098-.0012,3.5682-.0019l-.1471.1182c.4591-2.0265.8925-3.9395,1.3051-5.7606l.0761.1561c-1.1325-.5411-2.1952-1.049-3.22-1.5388l-.0716-.0341-.0029-.0787a14.413,14.413,0,0,0-.6443-3.763l-.0217-.0695.051-.0508c.9184-.9162,1.7457-1.7416,2.5272-2.5213l-.01459.1333c-1.216-1.9383-2.25211-3.5897-3.139-5.0034l.096.0331c-1.34631.4696-2.45081.8547-3.37081,1.1756l-.0338.0118-.0256-.024a15.01364,15.01364,0,0,0-2.2921-1.7657c-.2638-.1589-.4658-.2807-.6138-.3699a1.5065,1.5065,0,0,1-.2021-.1246,1.76287,1.76287,0,0,1,.217.0981c.1409.0723.3539.1822.6301.3451a14.00225,14.00225,0,0,1,2.3403,1.7311l-.0593-.0122c.9158-.3326,2.0152-.732,3.3554-1.2189l.0609-.0221.0354.0553c.8995,1.4059,1.95,3.0482,3.183,4.9756l.0462.0721-.06079.0614c-.77631.785-1.598,1.6158-2.51031,2.5382l.0292-.1201a14.59923,14.59923,0,0,1,.6773,3.8246l-.0744-.1127c1.0273.4848,2.0924.9874,3.2275,1.523l.1004.0474-.0243.109c-.4051,1.8227-.8307,3.7375-1.2816,5.7658l-.0261.1178-.1212.0004c-1.15849.0045-2.3447.0091-3.5682.0139l.1391-.0846a14.627,14.627,0,0,1-2.238,3.1859l.0339-.1652q.5901,1.6512,1.2014,3.3619l.045.1258-.1131.0718q-2.4315,1.5441-4.9855,3.1659l-.1169.0742-.0983-.0977q-1.24875-1.2414-2.532-2.5168l.177.0431a14.63808,14.63808,0,0,1-3.83989.6703l.15409-.1017q-.7569,1.59645-1.529,3.2245l-.0616.13-.14049-.0315q-2.84161-.63645-5.76431-1.291l-.1416-.0317-.0003-.1452-.0039-1.7792-.00189-.8949-.00091-.4487-.0005-.2246-.0003-.1123-.0001-.0563-.0001-.0281v-.0246c.1956.3214.0538.0888.0971.1605l-.0007-.0004-.0016-.0009a14.66264,14.66264,0,0,1-3.1842-2.2442l.1841.0378c-1.1549.4108-2.3016.8187-3.3641,1.1966l-.1361.0485-.0772-.122c-1.0867-1.717-2.1588-3.4107-3.1589-4.9909l-.0762-.1204.1005-.1008c.8701-.8726,1.7314-1.7364,2.5211-2.5282l-.0431.1769a14.737,14.737,0,0,1-.6656-3.8395l.0985.1492c-1.1163-.5317-2.2182-1.0564-3.2215-1.5342l-.1224-.0583.0298-.1318c.4512-2.0003.89141-3.952,1.2996-5.7619l.0285-.1266.1294-.0001c1.2424-.0007,2.4622-.0015,3.5683-.0021l-.1386.0843a14.63265,14.63265,0,0,1,2.2468-3.1778l-.0312.1523c-.4162-1.1763-.8222-2.3239-1.1908-3.3658l-.0383-.1082.0966-.0609q2.62966-1.65765,4.99611-3.1494l.08789-.0554.0729.0731c.8854.8865,1.7367,1.7388,2.5231,2.5262l-.1202-.0292a14.60323,14.60323,0,0,1,3.8257-.6531l-.0921.0608c.5561-1.1591,1.0759-2.2424,1.5436-3.2172l.03211-.0669.07149.0164c2.344.5401,4.2819.9865,5.7556,1.3261l.0458.0106-.0004.0459c-.0106,1.1484-.0188,2.0331-.02449,2.6471-.00541.2916-.00961.5167-.01261.6847A1.757,1.757,0,0,1,429.51979,125.391Z" transform="translate(-19.8549 -41.18551)"/><path class="cls-1" d="M464.46069,413.4461s-.0116-.375-.0174-1.0888c-.0042-.7216-.01029-1.7768-.01829-3.1559-.00951-2.7728-.02351-6.8394-.04141-12.0602-.0207-10.4361-.05059-25.4775-.0872-43.9442l.1642.1643c-27.9389.0131-64.387.0301-104.1284.0486h-.0078l.2129-.2129c-.0052,21.3234-.0102,41.6969-.0148,60.2491l-.1981-.1982,74.8981.0965c9.2044.023,16.5019.0412,21.5096.0537,2.4985.0106,4.4234.0188,5.7351.0243.64681.0053,1.1403.0091,1.483.0119.3343.0039.5105.0118.5105.0118s-.1603.008-.487.0119c-.3374.0027-.8233.0067-1.4603.0118-1.3026.0056-3.214.0137-5.695.0244-4.9972.0125-12.2795.0307-21.4646.0537-18.4273.0236-44.4801.0572-75.0294.0964l-.1982.0003v-.1985c-.0046-18.5522-.0097-38.9257-.0149-60.2491v-.2131h.2209c39.7414.0187,76.1895.0357,104.1284.0488l.1647.0001-.00029.1642c-.03661,18.5093-.06651,33.5853-.08721,44.0456-.0179,5.2048-.0319,9.2589-.0415,12.0232-.0079,1.3659-.0139,2.411-.0181,3.1256C464.47229,413.0943,464.46069,413.4461,464.46069,413.4461Z" transform="translate(-19.8549 -41.18551)"/><path class="cls-1" d="M464.50019,360.492c0,.1177-23.2927.213-52.0189.213-28.73629,0-52.0238-.0953-52.0238-.213s23.28751-.2129,52.0238-.2129C441.20749,360.2791,464.50019,360.3744,464.50019,360.492Z" transform="translate(-19.8549 -41.18551)"/><rect class="cls-2" x="349.48959" y="329.24089" width="32.1672" height="32.1672"/><path class="cls-1" d="M456.90869,375.7321a1.98729,1.98729,0,0,1-.473.043l-1.3566.0399c-1.2365.0168-2.9265.0398-4.9892.0677-4.2654.0162-10.059.0382-16.4605.0624-6.4037-.0242-12.1978-.0462-16.4632-.0624-2.0627-.0279-3.7527-.0509-4.989-.0677l-1.3564-.0399a1.98729,1.98729,0,0,1-.473-.043,1.99837,1.99837,0,0,1,.473-.0429c.3569-.0106.8057-.0237,1.3564-.04,1.2363-.0168,2.9262-.0397,4.989-.0676,4.2654-.0162,10.0595-.0382,16.4632-.0625l16.4605.0625c2.0628.0279,3.7528.0508,4.9892.0676.5508.0163.9997.0294,1.3566.04A1.99837,1.99837,0,0,1,456.90869,375.7321Z" transform="translate(-19.8549 -41.18551)"/><path class="cls-1" d="M457.94489,382.9173a2.07335,2.07335,0,0,1-.4835.043c-.3635.0105-.8225.0237-1.3867.04-1.26169.0167-2.9899.0397-5.1003.0677-4.3581.0161-10.2817.0381-16.8268.0624-6.5474-.0243-12.47159-.0463-16.8297-.0624-2.1104-.028-3.8385-.051-5.1001-.0677-.564-.0163-1.023-.0295-1.3865-.04a2.07438,2.07438,0,0,1-.4835-.043,2.0931,2.0931,0,0,1,.4835-.0429c.3634-.0104.8224-.0236,1.3865-.0399,1.2615-.0168,2.9896-.0397,5.1001-.0678,4.358-.0161,10.2823-.0381,16.8297-.0624,6.5451.0243,12.4687.0463,16.8268.0624,2.1104.0281,3.83861.051,5.1003.0678.5642.0163,1.02331.0295,1.3867.0399A2.09205,2.09205,0,0,1,457.94489,382.9173Z" transform="translate(-19.8549 -41.18551)"/><path class="cls-1" d="M457.94489,390.1026a2.0804,2.0804,0,0,1-.4835.043c-.3635.0104-.8225.0237-1.3867.04-1.26169.0166-2.9899.0396-5.1003.0676-4.3581.0161-10.2817.0381-16.8268.0623-6.5474-.0242-12.47159-.0462-16.8297-.0623-2.1104-.028-3.8385-.051-5.1001-.0676-.564-.0163-1.023-.0296-1.3865-.04a2.08144,2.08144,0,0,1-.4835-.043,2.086,2.086,0,0,1,.4835-.0429c.3634-.0105.8224-.0238,1.3865-.04,1.2615-.0168,2.9896-.0397,5.1001-.0677,4.358-.0162,10.2823-.0381,16.8297-.0624,6.5451.0243,12.4687.0462,16.8268.0624,2.1104.028,3.83861.0509,5.1003.0677.5642.0162,1.02331.0295,1.3867.04A2.08492,2.08492,0,0,1,457.94489,390.1026Z" transform="translate(-19.8549 -41.18551)"/><path class="cls-1" d="M457.94489,397.2878a2.0875,2.0875,0,0,1-.4835.043c-.3635.0104-.8225.0237-1.3867.0399-1.26169.0168-2.9899.0397-5.1003.0677-4.3581.0162-10.2817.0381-16.8268.0624-6.5474-.0243-12.47159-.0462-16.8297-.0624-2.1104-.028-3.8385-.0509-5.1001-.0677-.564-.0162-1.023-.0295-1.3865-.0399a2.08855,2.08855,0,0,1-.4835-.043,2.07887,2.07887,0,0,1,.4835-.0429c.3634-.0105.8224-.0238,1.3865-.04,1.2615-.0167,2.9896-.0397,5.1001-.0677,4.358-.0161,10.2823-.0381,16.8297-.0623,6.5451.0242,12.4687.0462,16.8268.0623,2.1104.028,3.83861.051,5.1003.0677.5642.0162,1.02331.0295,1.3867.04A2.07783,2.07783,0,0,1,457.94489,397.2878Z" transform="translate(-19.8549 -41.18551)"/><circle class="cls-2" cx="163.33784" cy="84.46535" r="43.27826" transform="translate(-31.74037 99.05111) rotate(-45)"/><path class="cls-1" d="M182.98819,85.7967a8.65673,8.65673,0,0,1-1.5291.1013c-1.082.0218-2.4944.0502-4.2064.0847-3.5693.0495-8.5422.0833-14.1556.0919l-.2778.0004-.0002-.2783c-.0006-.8981-.0014-1.8452-.00209-2.8064,0-6.2694.03129-11.9444.082-16.052.03619-1.9805.06619-3.6194.089-4.8644a10.88981,10.88981,0,0,1,.109-1.7835,10.91466,10.91466,0,0,1,.10909,1.7835c.0228,1.2449.0527,2.8839.08891,4.8644.05059,4.1076.08209,9.7826.08209,16.052-.0008.9612-.0016,1.9083-.0022,2.8064l-.2778-.2778c5.6134.0086,10.5863.0424,14.1556.0918,1.7121.0346,3.1244.0631,4.2064.0848A8.66456,8.66456,0,0,1,182.98819,85.7967Z" transform="translate(-19.8549 -41.18551)"/><path class="cls-1" d="M163.22979,48.2958a12.04026,12.04026,0,0,1,.2801,3.6353,12.03841,12.03841,0,0,1-.2801,3.6355,12.04627,12.04627,0,0,1-.2799-3.6355A12.04812,12.04812,0,0,1,163.22979,48.2958Z" transform="translate(-19.8549 -41.18551)"/><path class="cls-1" d="M182.94919,54.1345a11.70109,11.70109,0,0,1-2.3356,2.7317,11.69881,11.69881,0,0,1-2.7319,2.3358,11.71027,11.71027,0,0,1,2.3359-2.7318A11.71211,11.71211,0,0,1,182.94919,54.1345Z" transform="translate(-19.8549 -41.18551)"/><path class="cls-1" d="M194.47879,66.7301a15.07248,15.07248,0,0,1-2.9821,1.9905,15.07612,15.07612,0,0,1-3.1405,1.7308,15.93238,15.93238,0,0,1,6.1226-3.7213Z" transform="translate(-19.8549 -41.18551)"/><path class="cls-1" d="M201.23649,85.4211a22.17223,22.17223,0,0,1-4.9572.2801,22.17081,22.17081,0,0,1-4.9576-.2801,22.19977,22.19977,0,0,1,4.9576-.2799A22.20119,22.20119,0,0,1,201.23649,85.4211Z" transform="translate(-19.8549 -41.18551)"/><path class="cls-1" d="M132.494,84.7602a19.81839,19.81839,0,0,1-4.6817.28,19.81827,19.81827,0,0,1-4.6822-.28,19.80853,19.80853,0,0,1,4.6822-.2801A19.80865,19.80865,0,0,1,132.494,84.7602Z" transform="translate(-19.8549 -41.18551)"/><path class="cls-1" d="M137.3557,98.6758a20.47615,20.47615,0,0,1-3.5376,3.2092,20.46416,20.46416,0,0,1-3.8893,2.7732,20.63493,20.63493,0,0,1,3.5379-3.2094A20.64087,20.64087,0,0,1,137.3557,98.6758Z" transform="translate(-19.8549 -41.18551)"/><path class="cls-1" d="M149.3496,109.4374a31.79868,31.79868,0,0,1-2.4079,4.1737,31.808,31.808,0,0,1-2.5554,4.0855,15.716,15.716,0,0,1,2.0754-4.374A15.7227,15.7227,0,0,1,149.3496,109.4374Z" transform="translate(-19.8549 -41.18551)"/><path class="cls-1" d="M163.22979,123.3177a22.19408,22.19408,0,0,1-.2799-4.9572,22.19266,22.19266,0,0,1,.2799-4.9576,22.17791,22.17791,0,0,1,.2801,4.9576A22.17933,22.17933,0,0,1,163.22979,123.3177Z" transform="translate(-19.8549 -41.18551)"/><path class="cls-1" d="M184.59859,116.7124a14.52539,14.52539,0,0,1-4.0871-2.8001,14.52562,14.52562,0,0,1-3.3319-3.6671,45.5874,45.5874,0,0,1,3.6999,3.245A45.56567,45.56567,0,0,1,184.59859,116.7124Z" transform="translate(-19.8549 -41.18551)"/><path class="cls-1" d="M194.62669,105.9117a17.22621,17.22621,0,0,1-3.2824-2.8864,17.22237,17.22237,0,0,1-2.8868-3.2828,17.24183,17.24183,0,0,1,3.2828,2.8868A17.24134,17.24134,0,0,1,194.62669,105.9117Z" transform="translate(-19.8549 -41.18551)"/><path class="cls-1" d="M136.9006,71.4303a13.25017,13.25017,0,0,1-2.8969-2.5008,13.2522,13.2522,0,0,1-2.5011-2.8972,13.25307,13.25307,0,0,1,2.8971,2.5011A13.255,13.255,0,0,1,136.9006,71.4303Z" transform="translate(-19.8549 -41.18551)"/><path class="cls-1" d="M149.2771,58.3927a12.73174,12.73174,0,0,1-2.8474-2.4394,12.72176,12.72176,0,0,1-2.4524-2.8366,12.72864,12.72864,0,0,1,2.8475,2.4397A12.72435,12.72435,0,0,1,149.2771,58.3927Z" transform="translate(-19.8549 -41.18551)"/><g class="cls-3"><path class="cls-4" d="M398.739,62.2945a28.66927,28.66927,0,0,1,6.22609,4.3858l6.6523-2.3682,6.2525,9.8692-4.9822,5.004a28.62831,28.62831,0,0,1,1.3071,7.5041l6.3766,3.0283-2.5583,11.3995-7.0582.0156a28.57069,28.57069,0,0,1-4.3872,6.2265l2.3682,6.653-9.8677,6.2523-5.0047-4.9821a28.63291,28.63291,0,0,1-7.5044,1.3055l-3.0274,6.3766-11.4011-2.5566-.0148-7.059a28.57935,28.57935,0,0,1-6.2263-4.3866l-6.6537,2.3683-6.2526-9.8692,4.9837-5.0041A28.69342,28.69342,0,0,1,356.66,88.9539l-6.37521-3.0283,2.5568-11.4002,7.0583-.0148a28.56489,28.56489,0,0,1,4.38711-6.2271l-2.36841-6.6531,9.8679-6.2523,5.0047,4.9829a28.6275,28.6275,0,0,1,7.5044-1.3064l3.0275-6.3758,11.3994,2.5569.01651,7.0588ZM388.68809,75.7089a12.533,12.533,0,1,0,9.4861,14.9722A12.533,12.533,0,0,0,388.68809,75.7089Z" transform="translate(-19.8549 -41.18551)"/></g><path class="cls-2" d="M63.7006,162.583h73.9731s-6.5414-11.904-25.5824-10.1714c-18.185,1.6548-19.1097-5.8562-28.3563-6.7808S66.7828,151.7952,63.7006,162.583Z" transform="translate(-19.8549 -41.18551)"/><path class="cls-2" d="M223.797,297.0748h59.87579s-5.2947-9.6354-20.707-8.2329c-14.7195,1.3394-15.468-4.7402-22.9525-5.4886S226.29179,288.3429,223.797,297.0748Z" transform="translate(-19.8549 -41.18551)"/></g><g id="Floor"><path class="cls-5" d="M480.14509,444.82c0,.1439-103.0477.2605-230.134.2605-127.13059,0-230.15619-.1166-230.15619-.2605,0-.1437,103.0256-.2604,230.15619-.2604C377.09739,444.5596,480.14509,444.6763,480.14509,444.82Z" transform="translate(-19.8549 -41.18551)"/></g><g id="Screens"><rect class="cls-6" x="290.05399" y="103.93959" width="145.2826" height="97.2757"/><path class="cls-7" d="M455.19149,242.4008s-.0149-.6083-.02249-1.7695l-.02331-5.1323c-.0122-4.5022-.0301-11.1071-.053-19.5638-.0261-16.9006-.0636-41.1937-.1093-70.81l.208.208c-40.0333.0144-90.5358.0326-145.2709.0523H309.909l.26029-.2603c-.0078,34.6547-.0152,67.6092-.0219,97.2755l-.23839-.2384c42.76789.048,79.05729.0887,104.66669.1175,12.8148.0274,22.955.0492,29.9031.0641l7.9541.0289q1.34745.00915,2.0536.014c.46251.0047.705.014.705.014s-.2237.0094-.6771.0141q-.6972.0048-2.0268.014l-7.9064.0289c-6.9355.0149-17.0574.0366-29.8491.0641-25.6476.0287-61.9913.0695-104.82309.1175l-.23861.0002v-.2389c-.0067-29.6663-.0141-62.6208-.0219-97.2755l-.0001-.2605h.2721c54.7351.0197,105.2376.0379,145.2709.0523l.2085.0001-.0004.2081c-.0457,29.6705-.0831,54.0079-.1092,70.9394-.0229,8.4366-.0408,15.0257-.053,19.5171-.0102,2.228-.018,3.9335-.02329,5.0934C455.20639,241.8224,455.19149,242.4008,455.19149,242.4008Z" transform="translate(-19.8549 -41.18551)"/><path class="cls-7" d="M309.90889,153.806c0-.1438,32.4983-.2604,72.5777-.2604,40.0933,0,72.5846.1166,72.5846.2604s-32.4913.2604-72.5846.2604C342.40719,154.0664,309.90889,153.9498,309.90889,153.806Z" transform="translate(-19.8549 -41.18551)"/><g class="cls-8"><path class="cls-7" d="M315.64059,149.4268a1.1644,1.1644,0,1,1-1.1644-1.1644A1.16435,1.16435,0,0,1,315.64059,149.4268Z" transform="translate(-19.8549 -41.18551)"/></g><g class="cls-8"><path class="cls-7" d="M319.63049,149.4268a1.16435,1.16435,0,1,1-1.1644-1.1644A1.16435,1.16435,0,0,1,319.63049,149.4268Z" transform="translate(-19.8549 -41.18551)"/></g><g class="cls-8"><path class="cls-7" d="M323.56319,149.4268a1.16435,1.16435,0,1,1-1.1643-1.1644A1.16433,1.16433,0,0,1,323.56319,149.4268Z" transform="translate(-19.8549 -41.18551)"/></g><g class="cls-8"><rect class="cls-7" x="302.54399" y="122.76479" width="38.7538" height="38.7539"/></g><path class="cls-7" d="M435.26839,174.9043c0,.1438-15.1146.2604-33.7551.2604-18.647,0-33.7584-.1166-33.7584-.2604s15.1114-.2604,33.7584-.2604C420.15379,174.6439,435.26839,174.7605,435.26839,174.9043Z" transform="translate(-19.8549 -41.18551)"/><path class="cls-7" d="M435.26839,182.1059c0,.1439-15.1146.2605-33.7551.2605-18.647,0-33.7584-.1166-33.7584-.2605,0-.1437,15.1114-.2603,33.7584-.2603C420.15379,181.8456,435.26839,181.9622,435.26839,182.1059Z" transform="translate(-19.8549 -41.18551)"/><path class="cls-7" d="M435.26839,189.3076c0,.1438-15.1146.2604-33.7551.2604-18.647,0-33.7584-.1166-33.7584-.2604s15.1114-.2604,33.7584-.2604C420.15379,189.0472,435.26839,189.1638,435.26839,189.3076Z" transform="translate(-19.8549 -41.18551)"/><path class="cls-7" d="M407.65639,196.5092a9.053,9.053,0,0,1-1.5679.1014c-1.1027.0214-2.5417.0492-4.2757.0828-3.6103.0471-8.59779.0763-14.1062.0763-5.5103,0-10.4983-.0292-14.10859-.0763-1.734-.0336-3.17281-.0614-4.27551-.0828a9.04965,9.04965,0,0,1-1.5676-.1014,9.08348,9.08348,0,0,1,1.5676-.1013c1.1026-.0213,2.5414-.0492,4.27551-.0827,3.61029-.0472,8.59829-.0763,14.10859-.0763,5.50841,0,10.4959.0291,14.1062.0763,1.7341.0335,3.1731.0614,4.2757.0827A9.08683,9.08683,0,0,1,407.65639,196.5092Z" transform="translate(-19.8549 -41.18551)"/><g class="cls-8"><rect class="cls-7" x="304.96899" y="174.58489" width="18.2125" height="18.2126"/></g><g class="cls-8"><rect class="cls-7" x="337.99799" y="174.58489" width="18.2125" height="18.2126"/></g><g class="cls-8"><rect class="cls-7" x="371.02699" y="174.58489" width="18.2126" height="18.2126"/></g><g class="cls-8"><rect class="cls-7" x="404.05599" y="174.58489" width="18.2126" height="18.2126"/></g><rect class="cls-6" x="24.3554" y="138.98359" width="129.42219" height="52.5692"/><path class="cls-7" d="M173.63249,232.7383s-.0099-.3229-.0149-.9389c-.0035-.6226-.0087-1.5342-.0155-2.7274-.0082-2.3986-.0202-5.9226-.0357-10.4617-.01839-9.0733-.045-22.1978-.0779-38.4411l.1439.1438c-32.92319.0155-78.75259.0372-129.41339.061h-.0086l.2048-.2048c-.003,18.4091-.006,36.1789-.0088,52.5691l-.196-.1961c37.5005.0374,69.8293.0696,92.7929.0925,11.4907.0233,20.63619.0418,26.91849.0545,3.1378.0108,5.5587.0192,7.2046.0248q1.2237.00795,1.8651.0121c.42051.0041.641.0122.641.0122s-.2043.0081-.6167.0122q-.63315.0042-1.8421.0122c-1.6366.0056-4.04369.014-7.16369.0248-6.27181.0127-15.402.0312-26.8736.0544-22.9966.0229-55.3716.0552-92.926.0926l-.1962.0001v-.1963c-.0028-16.3902-.0057-34.16-.0088-52.5691v-.205h.2136c50.6608.0238,96.4902.0454,129.41339.0609l.1443.0001-.0003.144c-.0329,16.2801-.0595,29.4344-.0779,38.5282-.0154,4.5252-.02749,8.0383-.0356,10.4295-.0068,1.1819-.012,2.0848-.0156,2.7015C173.64229,232.4351,173.63249,232.7383,173.63249,232.7383Z" transform="translate(-19.8549 -41.18551)"/><path class="cls-7" d="M44.3397,187.2586c0-.1133,28.9285-.205,64.6053-.205,35.6893,0,64.61159.0917,64.61159.205,0,.1131-28.92229.2048-64.61159.2048C73.2682,187.4634,44.3397,187.3717,44.3397,187.2586Z" transform="translate(-19.8549 -41.18551)"/><g class="cls-8"><path class="cls-7" d="M49.7578,184.0877a.9392.9392,0,1,1-.9392-.9393A.93921.93921,0,0,1,49.7578,184.0877Z" transform="translate(-19.8549 -41.18551)"/></g><g class="cls-8"><path class="cls-7" d="M52.9763,184.0877a.93925.93925,0,1,1-.9392-.9393A.93921.93921,0,0,1,52.9763,184.0877Z" transform="translate(-19.8549 -41.18551)"/></g><g class="cls-8"><path class="cls-7" d="M56.1486,184.0877a.93925.93925,0,1,1-.9393-.9393A.93923.93923,0,0,1,56.1486,184.0877Z" transform="translate(-19.8549 -41.18551)"/></g><g class="cls-8"><rect class="cls-7" x="35.3544" y="154.61749" width="31.2605" height="31.2605"/></g><path class="cls-7" d="M164.67779,204.1802c0,.1132-16.08629.2049-35.92529.2049-19.8458,0-35.9287-.0917-35.9287-.2049s16.0829-.2049,35.9287-.2049C148.5915,203.9753,164.67779,204.0671,164.67779,204.1802Z" transform="translate(-19.8549 -41.18551)"/><path class="cls-7" d="M164.67779,210.5485c0,.1132-16.08629.205-35.92529.205-19.8458,0-35.9287-.0918-35.9287-.205s16.0829-.2049,35.9287-.2049C148.5915,210.3436,164.67779,210.4354,164.67779,210.5485Z" transform="translate(-19.8549 -41.18551)"/><path class="cls-7" d="M139.0792,216.9169a2.05071,2.05071,0,0,1-.4699.0413c-.3526.01-.7988.0228-1.3476.0384-1.2252.0162-2.9048.0382-4.9566.0652-4.2342.0156-9.9913.0367-16.3525.06-6.3634-.0233-12.121-.0444-16.3552-.06-2.0517-.027-3.7313-.049-4.9563-.0652-.5488-.0156-.9949-.0284-1.3475-.0384a2.05022,2.05022,0,0,1-.4698-.0413,2.03576,2.03576,0,0,1,.4698-.0413c.3525-.0101.7987-.0228,1.3475-.0385,1.2249-.0161,2.9045-.0382,4.9563-.0651,4.2342-.0156,9.9918-.0367,16.3552-.06,6.3612.0233,12.1183.0444,16.3525.06,2.0518.0269,3.7315.049,4.9566.0651.5488.0157.995.0284,1.3476.0385A2.03625,2.03625,0,0,1,139.0792,216.9169Z" transform="translate(-19.8549 -41.18551)"/></g><g id="Rocket"><path class="cls-2" d="M268.732,114.11c-2.16951-1.4464-5.14821-.5714-7.31721.8756s-4.0229,3.4303-6.4533,4.3748c-4.5649,1.7739-10.5472-.3282-14.095,3.048-2.2513,2.1425-2.4812,5.6595-4.2014,8.2478-2.8976,4.36-9.85109,5.998-10.4475,11.199-.3479,3.0337,2.0528,5.9426,4.9855,6.7937a10.7,10.7,0,0,0,8.7018-1.7376c2.9703-1.9741,5.3035-5.0184,8.6882-6.1423,3.4588-1.1485,7.728-.1866,10.4571-2.6019,2.7344-2.4199,2.321-6.8569,4.2774-9.9399a19.98071,19.98071,0,0,1,4.1555-4.0564c1.4714-1.2706,2.8717-2.8418,3.1183-4.7702s-.5443-5.217-1.86939-5.2906" transform="translate(-19.8549 -41.18551)"/><path class="cls-5" d="M212.38389,326.5605c.1228-.075.5283.3292.9056.9028.3774.5738.588,1.1061.4706,1.1892s-.5229-.3211-.9057-.903C212.47179,327.1679,212.26119,326.6354,212.38389,326.5605Z" transform="translate(-19.8549 -41.18551)"/><path class="cls-5" d="M208.09779,317.54a12.14674,12.14674,0,0,1,1.8993,4.6288,12.1502,12.1502,0,0,1-1.8993-4.6288Z" transform="translate(-19.8549 -41.18551)"/><path class="cls-5" d="M205.77919,307.8181a12.1485,12.1485,0,0,1,.9129,4.9202,12.151,12.151,0,0,1-.9129-4.9202Z" transform="translate(-19.8549 -41.18551)"/><path class="cls-5" d="M205.42789,297.8297a12.148,12.148,0,0,1-.0697,5.0028,12.14783,12.14783,0,0,1,.0697-5.0028Z" transform="translate(-19.8549 -41.18551)"/><path class="cls-5" d="M207.04479,287.9656a12.15372,12.15372,0,0,1-1.0555,4.8923,12.15722,12.15722,0,0,1,1.0555-4.8923Z" transform="translate(-19.8549 -41.18551)"/><path class="cls-5" d="M210.64109,278.6465a12.14384,12.14384,0,0,1-2.0466,4.5656,12.14844,12.14844,0,0,1,2.0466-4.5656Z" transform="translate(-19.8549 -41.18551)"/><path class="cls-5" d="M216.151,270.313a6.28741,6.28741,0,0,1-1.28161,2.1628,6.79531,6.79531,0,0,1-1.6923,1.8605c-.13509-.0896.4468-1.052,1.27291-2.1692C215.27809,271.0519,216.03989,270.2218,216.151,270.313Z" transform="translate(-19.8549 -41.18551)"/><path class="cls-5" d="M222.87359,262.9051c.10241.1011-.58559.9924-1.5363,1.9905-.9511.9985-1.808,1.7291-1.9144,1.6323s.5814-.9879,1.5365-1.9906C221.91419,263.5349,222.77139,262.8041,222.87359,262.9051Z" transform="translate(-19.8549 -41.18551)"/><path class="cls-5" d="M229.91409,255.7938c.1038.0997-.5993.9792-1.57009,1.9642-.97121.9853-1.84051,1.7013-1.94211,1.5995s.6013-.9811,1.5703-1.9643C228.941,256.4103,229.81049,255.6942,229.91409,255.7938Z" transform="translate(-19.8549 -41.18551)"/><path class="cls-5" d="M236.487,248.2539c.11529.0859-.50471,1.0257-1.385,2.0986-.88051,1.0733-1.68131,1.8653-1.78861,1.7695a6.28406,6.28406,0,0,1,1.3852-2.0987C235.57079,248.9602,236.37169,248.168,236.487,248.2539Z" transform="translate(-19.8549 -41.18551)"/><path class="cls-5" d="M241.59119,239.67a5.373,5.373,0,0,1-.8403,2.3806c-.6398,1.2389-1.3323,2.1391-1.4525,2.0647a7.32961,7.32961,0,0,1,.9899-2.3039A7.46251,7.46251,0,0,1,241.59119,239.67Z" transform="translate(-19.8549 -41.18551)"/><path class="cls-5" d="M244.02469,230.0064a8.82562,8.82562,0,0,1-.8202,4.9315,19.68139,19.68139,0,0,1,.8202-4.9315Z" transform="translate(-19.8549 -41.18551)"/><path class="cls-5" d="M243.28279,220.0671a8.83429,8.83429,0,0,1,.7678,4.9399,19.63353,19.63353,0,0,1-.7678-4.9399Z" transform="translate(-19.8549 -41.18551)"/><path class="cls-5" d="M239.35349,210.9196c.116-.0802.8511.7912,1.5093,2.0226a5.1771,5.1771,0,0,1,.8527,2.3753,7.82985,7.82985,0,0,1-1.3116-2.1291A7.91243,7.91243,0,0,1,239.35349,210.9196Z" transform="translate(-19.8549 -41.18551)"/><path class="cls-5" d="M232.37609,203.8226a5.13644,5.13644,0,0,1,2.16,1.3119c1.0754.8957,1.7762,1.7977,1.6737,1.8943-.1059.1015-.9569-.6199-2.0076-1.4946C233.15459,204.6565,232.29439,203.9447,232.37609,203.8226Z" transform="translate(-19.8549 -41.18551)"/><path class="cls-5" d="M223.286,199.7635a8.53307,8.53307,0,0,1,4.72969,1.616,21.37022,21.37022,0,0,1-4.72969-1.616Z" transform="translate(-19.8549 -41.18551)"/><path class="cls-5" d="M213.35029,199.3119a8.23236,8.23236,0,0,1,4.9896-.2648,8.13617,8.13617,0,0,1-2.4881.2648A8.24688,8.24688,0,0,1,213.35029,199.3119Z" transform="translate(-19.8549 -41.18551)"/><path class="cls-5" d="M204.125,202.9876c-.08221-.1134.77629-.8702,2.01219-1.5324a4.95346,4.95346,0,0,1,2.3901-.8289,8.49131,8.49131,0,0,1-2.1436,1.2876A8.35888,8.35888,0,0,1,204.125,202.9876Z" transform="translate(-19.8549 -41.18551)"/><path class="cls-5" d="M197.25859,210.1772a5.0638,5.0638,0,0,1,1.2272-2.2104c.8578-1.1073,1.7389-1.8352,1.8383-1.7358.105.1028-.5906.9749-1.42709,2.0553C198.05719,209.3635,197.38429,210.2534,197.25859,210.1772Z" transform="translate(-19.8549 -41.18551)"/><path class="cls-5" d="M193.88959,219.5205a4.92534,4.92534,0,0,1,.1947-2.5224,4.97688,4.97688,0,0,1,.9778-2.3332,8.422,8.422,0,0,1-.4717,2.456A8.57886,8.57886,0,0,1,193.88959,219.5205Z" transform="translate(-19.8549 -41.18551)"/><path class="cls-5" d="M195.07679,229.3664a5.00179,5.00179,0,0,1-.9773-2.332,4.94831,4.94831,0,0,1-.2016-2.5211,8.49486,8.49486,0,0,1,.7075,2.3977A8.33472,8.33472,0,0,1,195.07679,229.3664Z" transform="translate(-19.8549 -41.18551)"/><path class="cls-5" d="M200.14759,237.9348c-.1064.0925-.935-.6873-1.7493-1.8208a5.23127,5.23127,0,0,1-1.1645-2.2413c.1263-.0735.7857.8272,1.5873,1.9372A7.57116,7.57116,0,0,1,200.14759,237.9348Z" transform="translate(-19.8549 -41.18551)"/><path class="cls-5" d="M207.51159,244.677a5.53085,5.53085,0,0,1-2.1541-1.3137c-1.08449-.8736-1.8337-1.727-1.7367-1.8309.099-.1067.9945.5644,2.0639,1.4256C206.75209,243.821,207.59559,244.558,207.51159,244.677Z" transform="translate(-19.8549 -41.18551)"/><path class="cls-5" d="M216.18009,249.6474a6.1722,6.1722,0,0,1-2.3478-.9017c-1.2395-.6303-2.1848-1.242-2.1121-1.3662a12.14953,12.14953,0,0,1,4.4599,2.2679Z" transform="translate(-19.8549 -41.18551)"/><path class="cls-5" d="M225.69609,252.6758a9.47867,9.47867,0,0,1-4.8448-1.241,16.996,16.996,0,0,1,4.8448,1.241Z" transform="translate(-19.8549 -41.18551)"/><path class="cls-5" d="M235.65569,253.1895a8.98214,8.98214,0,0,1-4.9969.0997,7.51708,7.51708,0,0,1,2.4955-.216A7.60214,7.60214,0,0,1,235.65569,253.1895Z" transform="translate(-19.8549 -41.18551)"/><path class="cls-5" d="M245.28129,250.616a8.76125,8.76125,0,0,1-4.7044,1.6899,20.00051,20.00051,0,0,1,4.7044-1.6899Z" transform="translate(-19.8549 -41.18551)"/><path class="cls-5" d="M253.62339,245.1538c.0954.1044-.6635.9513-1.7702,1.7994a5.33685,5.33685,0,0,1-2.197,1.2436c-.0789-.1228.794-.8207,1.8799-1.6567C252.62359,245.707,253.52529,245.0454,253.62339,245.1538Z" transform="translate(-19.8549 -41.18551)"/><path class="cls-5" d="M260.13319,237.5876a5.4295,5.4295,0,0,1-1.2283,2.2057c-.83589,1.1159-1.6695,1.8888-1.7757,1.7949a7.3701,7.3701,0,0,1,1.3592-2.1076C259.313,238.3845,260.01029,237.509,260.13319,237.5876Z" transform="translate(-19.8549 -41.18551)"/><path class="cls-5" d="M264.46379,228.5945a9.28538,9.28538,0,0,1-1.8712,4.639,17.70343,17.70343,0,0,1,1.8712-4.639Z" transform="translate(-19.8549 -41.18551)"/><path class="cls-5" d="M266.40029,218.7982a9.58867,9.58867,0,0,1-.6789,4.9548,16.64429,16.64429,0,0,1,.6789-4.9548Z" transform="translate(-19.8549 -41.18551)"/><path class="cls-5" d="M266.14259,208.8084a12.14546,12.14546,0,0,1,.3863,4.9883,12.14616,12.14616,0,0,1-.3863-4.9883Z" transform="translate(-19.8549 -41.18551)"/><path class="cls-5" d="M263.97109,199.0475a12.16225,12.16225,0,0,1,1.3077,4.8327,12.16464,12.16464,0,0,1-1.3077-4.8327Z" transform="translate(-19.8549 -41.18551)"/><path class="cls-5" d="M260.14259,189.8071a6.12975,6.12975,0,0,1,1.3317,2.1396,6.22858,6.22858,0,0,1,.7746,2.3992,6.244,6.244,0,0,1-1.2467-2.1794A6.34866,6.34866,0,0,1,260.14259,189.8071Z" transform="translate(-19.8549 -41.18551)"/><path class="cls-5" d="M255.22259,181.0951c.1235-.0738.7909.8337,1.49041,2.0266a6.21671,6.21671,0,0,1,1.04059,2.2893c-.1249.0711-.7922-.8362-1.4904-2.0269A6.243,6.243,0,0,1,255.22259,181.0951Z" transform="translate(-19.8549 -41.18551)"/><path class="cls-5" d="M250.25789,172.4079a12.14542,12.14542,0,0,1,2.4225,4.3778c-.1241.0724-.7686-.8512-1.43939-2.0636A6.20323,6.20323,0,0,1,250.25789,172.4079Z" transform="translate(-19.8549 -41.18551)"/><path class="cls-5" d="M246.35219,163.2125a12.11957,12.11957,0,0,1,1.744,4.6834,12.11848,12.11848,0,0,1-1.744-4.6834Z" transform="translate(-19.8549 -41.18551)"/><path class="cls-5" d="M244.65019,153.3783a17.44344,17.44344,0,0,1,.5295,4.9719,9.344,9.344,0,0,1-.5295-4.9719Z" transform="translate(-19.8549 -41.18551)"/><path class="cls-5" d="M245.47639,143.4279a17.19466,17.19466,0,0,1-.7232,4.95,9.42478,9.42478,0,0,1,.7232-4.95Z" transform="translate(-19.8549 -41.18551)"/><path class="cls-5" d="M248.73609,133.9922a7.3309,7.3309,0,0,1-.7974,2.376,7.31082,7.31082,0,0,1-1.1305,2.2373,9.35,9.35,0,0,1,1.9279-4.6133Z" transform="translate(-19.8549 -41.18551)"/><path class="cls-5" d="M254.31069,125.7125c.1085.0978-.5514,1.0014-1.3901,2.0859-.8413,1.0832-1.5503,1.9481-1.6721,1.8677a5.41465,5.41465,0,0,1,1.2604-2.1866C253.36139,126.3774,254.206,125.6173,254.31069,125.7125Z" transform="translate(-19.8549 -41.18551)"/><path class="cls-5" d="M261.81659,119.1316c.0806.1216-.7833.8332-1.8687,1.672a7.29472,7.29472,0,0,1-2.09189,1.383c-.09481-.1054.66969-.9455,1.77379-1.7954A5.46232,5.46232,0,0,1,261.81659,119.1316Z" transform="translate(-19.8549 -41.18551)"/><path class="cls-5" d="M270.718,114.6055a17.30027,17.30027,0,0,1-4.59121,1.9843,9.39079,9.39079,0,0,1,4.59121-1.9843Z" transform="translate(-19.8549 -41.18551)"/><path class="cls-5" d="M277.97029,112.7717c.0204.1424-.5092.3586-1.1827.4828-.6738.1241-1.24559.1108-1.2771-.0295s.4978-.3565,1.1828-.4827C277.378,112.6161,277.94979,112.6294,277.97029,112.7717Z" transform="translate(-19.8549 -41.18551)"/><path class="cls-7" d="M298.37729,83.3272s11.7453-8.378,27.9996-2.9677c0,0,1.3359,13.4561-11.6992,24.1572" transform="translate(-19.8549 -41.18551)"/><path class="cls-7" d="M261.35139,108.19c.4998.7498,13.2452,21.2424,13.2452,21.2424L312.871,105.8527a13.39534,13.39534,0,0,0,3.73759-19.3782h0a13.39531,13.39531,0,0,0-18.2313-3.1473Z" transform="translate(-19.8549 -41.18551)"/><path class="cls-5" d="M274.59659,129.4324l-.8573,14.4174s24.8031-12.0118,18.61271-25.356Z" transform="translate(-19.8549 -41.18551)"/><path class="cls-5" d="M279.07979,96.2855s-16.8152-7.42-30.6647,3.4617l12.9363,8.4428Z" transform="translate(-19.8549 -41.18551)"/><path class="cls-5" d="M278.96149,108.2003l-23.9359,14.9722s.8221,2.5747,1.4658,2.3602c.5391-.1797,18.5248-10.8002,24.3571-14.2479a1.80137,1.80137,0,0,0,.4702-2.6978h0A1.808,1.808,0,0,0,278.96149,108.2003Z" transform="translate(-19.8549 -41.18551)"/><circle class="cls-9" cx="301.00732" cy="96.85343" r="7.66328" transform="translate(117.94198 326.49691) rotate(-76.76178)"/><path class="cls-5" d="M308.67059,96.8534c-.0599.0037-.0277-.683-.338-1.8463a7.64051,7.64051,0,0,0-2.8004-4.0985,7.46074,7.46074,0,0,0-7.0534-1.027,7.34937,7.34937,0,0,0-3.4371,2.5932,7.38868,7.38868,0,0,0-.0005,8.7566,7.34976,7.34976,0,0,0,3.4376,2.5939,7.46107,7.46107,0,0,0,7.0539-1.0273,7.64122,7.64122,0,0,0,2.8-4.0984c.3102-1.1633.278-1.8499.3379-1.8462a1.742,1.742,0,0,1,.0277.4917,6.0603,6.0603,0,0,1-.169,1.4038,7.62842,7.62842,0,0,1-2.7734,4.3419,7.74612,7.74612,0,0,1-3.2942,1.5022,7.87384,7.87384,0,0,1-4.1466-.3167,7.7867,7.7867,0,0,1-3.685-2.7428,7.85569,7.85569,0,0,1,.0005-9.3609,7.78812,7.78812,0,0,1,3.6845-2.7421,7.874,7.874,0,0,1,4.1461-.3167,7.746,7.746,0,0,1,3.2943,1.5019,7.62856,7.62856,0,0,1,2.7737,4.3419,6.05818,6.05818,0,0,1,.1691,1.4041A1.74144,1.74144,0,0,1,308.67059,96.8534Z" transform="translate(-19.8549 -41.18551)"/><path class="cls-5" d="M318.001,101.9607c-.09891.0099-.21461-1.4874-.80161-3.8167a29.15723,29.15723,0,0,0-1.3321-3.992,28.84819,28.84819,0,0,0-5.5611-8.6125,29.15488,29.15488,0,0,0-3.0905-2.857c-1.8814-1.4934-3.1983-2.2149-3.1485-2.301a4.09912,4.09912,0,0,1,.9542.4511,10.39709,10.39709,0,0,1,1.0653.6299c.4026.2661.8771.5489,1.3535.9281a25.70163,25.70163,0,0,1,3.2142,2.8188,27.00471,27.00471,0,0,1,5.657,8.761,25.70334,25.70334,0,0,1,1.2464,4.0891c.1496.5902.2121,1.1391.289,1.6155a10.42173,10.42173,0,0,1,.1358,1.2303A4.10071,4.10071,0,0,1,318.001,101.9607Z" transform="translate(-19.8549 -41.18551)"/><path class="cls-5" d="M315.93609,103.0639c-.09909.0101-.2193-1.5126-.8164-3.8823a29.94668,29.94668,0,0,0-1.3523-4.0626,29.62123,29.62123,0,0,0-5.6311-8.7809,29.93822,29.93822,0,0,0-3.12829-2.9239c-1.90461-1.5312-3.23811-2.2756-3.18751-2.3614a4.22793,4.22793,0,0,1,.966.4678,10.70492,10.70492,0,0,1,1.0783.6493c.4074.2737.8876.5651,1.3696.9538a26.42924,26.42924,0,0,1,3.2518,2.886,27.73259,27.73259,0,0,1,5.7257,8.9283,26.42829,26.42829,0,0,1,1.2662,4.1589c.1522.6003.2167,1.1583.2955,1.6427a10.72534,10.72534,0,0,1,.14041,1.251A4.23086,4.23086,0,0,1,315.93609,103.0639Z" transform="translate(-19.8549 -41.18551)"/></g><g id="Plant"><path class="cls-7" d="M81.8397,420.9666c-.857-3.3998,1.3887-6.7957,3.8979-9.2445,2.5092-2.449,5.5052-4.6387,6.822-7.8882,2.1333-5.2645-.6556-12.1126,2.9587-16.4945,2.1261-2.5779,5.9172-3.4228,7.8066-6.1789a14.156,14.156,0,0,0,1.715-4.9347,50.22191,50.22191,0,0,1,12.6223-23.3001,43.57546,43.57546,0,0,1-5.0281,22.4963c-1.4691,2.7597-3.2694,5.4478-3.7684,8.5342-.8107,5.0116,1.9596,10.195.6996,15.113-1.4413,5.6246-7.7898,9.3587-8.1228,15.1555-.2816,4.9007,3.9667,9.2276,3.6204,14.1242a13.22938,13.22938,0,0,1-2.214,5.8007c-3.8263,6.2796-9.4185,10.588-17.8576,10.399l-10.3392.3033Z" transform="translate(-19.8549 -41.18551)"/><g class="cls-8"><path d="M81.8397,420.9666c-.857-3.3998,1.3887-6.7957,3.8979-9.2445,2.5092-2.449,5.5052-4.6387,6.822-7.8882,2.1333-5.2645-.6556-12.1126,2.9587-16.4945,2.1261-2.5779,5.9172-3.4228,7.8066-6.1789a14.156,14.156,0,0,0,1.715-4.9347,50.22191,50.22191,0,0,1,12.6223-23.3001,43.57546,43.57546,0,0,1-5.0281,22.4963c-1.4691,2.7597-3.2694,5.4478-3.7684,8.5342-.8107,5.0116,1.9596,10.195.6996,15.113-1.4413,5.6246-7.7898,9.3587-8.1228,15.1555-.2816,4.9007,3.9667,9.2276,3.6204,14.1242a13.22938,13.22938,0,0,1-2.214,5.8007c-3.8263,6.2796-9.4185,10.588-17.8576,10.399l-10.3392.3033Z" transform="translate(-19.8549 -41.18551)"/></g><path class="cls-5" d="M72.5574,445.1113a8.25245,8.25245,0,0,1-2.8459-.0777,17.2803,17.2803,0,0,1-3.3542-.8645,14.23551,14.23551,0,0,1-4.1358-2.2958,5.7856,5.7856,0,0,1-1.6936-2.2838,10.705,10.705,0,0,1-.4691-3.0911,29.97637,29.97637,0,0,0-.2221-3.3452,9.22274,9.22274,0,0,0-1.2442-3.3316c-1.2069-2.148-3.2188-4.1861-3.8563-7.097-.6912-2.8633-.166-5.9546.3324-9.0594.4976-3.0975.9816-6.4756-.186-9.7124-1.0904-3.2392-3.3408-6.1707-4.4537-9.8217-1.1076-3.6875-.5591-7.6435-.7752-11.5496a15.32327,15.32327,0,0,0-1.3145-5.7472c-.826-1.8346-1.9763-3.5668-2.8711-5.4983-1.8126-3.9048-2.1115-8.3201-2.5888-12.6484q-.3486-3.2709-.7041-6.6093a32.33937,32.33937,0,0,0-1.111-6.6174,58.36531,58.36531,0,0,0-2.4364-6.4115,21.24923,21.24923,0,0,1-1.1808-3.348,33.59064,33.59064,0,0,1-.3133-3.557,41.89779,41.89779,0,0,1,.3158-7.154c.2946-2.3841.7383-4.7466,1.0083-7.1357.0166-.1411.0333-.2823.0487-.412l.0561-.4758.4221.2144a15.96672,15.96672,0,0,1,5.538,4.7277,25.32855,25.32855,0,0,1,3.3833,6.32c1.7015,4.4511,2.2968,9.109,3.1421,13.5551.8244,4.4462,1.9199,8.8215,4.1764,12.5262,1.1221,1.8472,2.4833,3.5357,3.6724,5.3385a14.61547,14.61547,0,0,1,2.5316,5.906c.5865,4.3763-1.844,8.2034-1.3646,12.0781a13.40771,13.40771,0,0,0,1.8552,5.3754c.9294,1.6569,2.0239,3.1947,3.0618,4.7404a30.31843,30.31843,0,0,1,2.7478,4.7848,15.11561,15.11561,0,0,1,1.2406,5.1895c.2324,3.4872-.2811,6.7914-.0439,9.915a22.81566,22.81566,0,0,0,2.5028,8.5101c1.2359,2.5503,2.6138,4.8579,3.7663,7.0946a36.26682,36.26682,0,0,1,1.5485,3.3032,16.21056,16.21056,0,0,1,.8888,3.273,20.63114,20.63114,0,0,1,.0428,5.9006,14.867,14.867,0,0,1-3.0002,7.5075,7.14674,7.14674,0,0,1-.8417.901,4.10949,4.10949,0,0,1-.6817.5724c-.387.2818-.5936.4109-.5936.4109a13.06876,13.06876,0,0,0,2.0129-1.968,14.96653,14.96653,0,0,0,2.8484-7.4575,20.51785,20.51785,0,0,0-.0987-5.8155,15.94871,15.94871,0,0,0-.8961-3.1963c-.4337-1.0691-.974-2.1544-1.5581-3.2595-1.1617-2.2169-2.5543-4.5154-3.817-7.0819a23.20277,23.20277,0,0,1-2.5911-8.6606c-.2537-3.1898.2452-6.5058.0013-9.9113a14.59512,14.59512,0,0,0-1.2176-5.0152,29.86868,29.86868,0,0,0-2.7167-4.6894c-1.0374-1.5351-2.1445-3.0786-3.1004-4.7702a13.96845,13.96845,0,0,1-1.9408-5.5956c-.4748-4.1275,1.9381-7.9798,1.3399-12.0481a14.02806,14.02806,0,0,0-2.4461-5.6494c-1.1703-1.7692-2.5387-3.4593-3.6944-5.3533-2.3275-3.811-3.4406-8.2705-4.2739-12.7347-.8534-4.4739-1.4497-9.0825-3.1209-13.4421a24.69513,24.69513,0,0,0-3.2946-6.154,15.31182,15.31182,0,0,0-5.3049-4.5329l.4781-.2613-.0491.4166c-.2737,2.4174-.7186,4.785-1.0098,7.141a41.29376,41.29376,0,0,0-.314,7.0447,33.80223,33.80223,0,0,0,.2981,3.4503,20.81767,20.81767,0,0,0,1.1417,3.2293,58.78238,58.78238,0,0,1,2.455,6.4821,32.88747,32.88747,0,0,1,1.1257,6.727q.35145,3.34005.6957,6.6144c.4693,4.3466.7685,8.6909,2.514,12.4602.8623,1.8765,2.0109,3.6141,2.8609,5.5082a15.9141,15.9141,0,0,1,1.3518,5.9597c.2025,3.9906-.3385,7.8871.7204,11.4271,1.0517,3.5231,3.29,6.4699,4.4105,9.8121,1.2005,3.3773.6751,6.865.1647,9.9527-.517,3.1094-1.0356,6.1358-.3849,8.8881.5816,2.78,2.5355,4.7995,3.7671,7.0085a9.56636,9.56636,0,0,1,1.2624,3.4641,29.915,29.915,0,0,1,.1983,3.3854,10.48332,10.48332,0,0,0,.424,3.0071,5.537,5.537,0,0,0,1.5911,2.1845,14.183,14.183,0,0,0,4.0362,2.3066,17.81014,17.81014,0,0,0,3.3066.9173,13.2495,13.2495,0,0,0,2.1014.215C72.3104,445.1018,72.5574,445.1113,72.5574,445.1113Z" transform="translate(-19.8549 -41.18551)"/><path class="cls-5" d="M40.5869,323.1467a1.21065,1.21065,0,0,1,.0983.313c.0593.2478.1324.5542.2229.932.1984.8151.4342,2.0458.8154,3.5837.3973,1.5331,1.3252,3.2711,2.115,5.4112.8217,2.1231,1.6532,4.5831,2.4155,7.3463.7727,2.7605,1.4544,5.8265,2.1661,9.1098a38.30576,38.30576,0,0,0,3.2517,10.1143c.8378,1.684,1.7822,3.3889,2.5291,5.2523a24.38626,24.38626,0,0,1,1.4548,5.9402,119.94348,119.94348,0,0,0,2.1574,12.5184c2.0248,8.4832,3.9531,16.5624,5.7091,23.9195,1.7994,7.3319,3.4212,13.9389,4.788,19.5085,1.3297,5.519,2.4101,10.0033,3.1721,13.166.3508,1.5174.6281,2.7159.8298,3.5876.0808.3799.1464.688.1994.9371a1.2121,1.2121,0,0,1,.0459.3248,1.21168,1.21168,0,0,1-.1117-.3083c-.0702-.2451-.1567-.5477-.2636-.9211-.231-.8643-.5486-2.0528-.9508-3.5576-.8112-3.1504-1.9612-7.6172-3.3767-13.1148-1.4065-5.5599-3.0749-12.1553-4.9262-19.4743-1.7729-7.3589-3.7199-15.4403-5.7641-23.9257a118.253,118.253,0,0,1-2.153-12.5699,23.845,23.845,0,0,0-1.4-5.7965c-.7201-1.8159-1.6496-3.5122-2.4877-5.2142a38.54763,38.54763,0,0,1-3.2419-10.2699c-.6888-3.292-1.3409-6.3483-2.0809-9.1033-.7295-2.7568-1.5251-5.2132-2.3096-7.3383-.7484-2.1325-1.6459-3.8911-2.0176-5.476-.3491-1.5752-.5392-2.793-.6968-3.6233-.064-.3831-.1162-.6937-.1581-.945A1.2117,1.2117,0,0,1,40.5869,323.1467Z" transform="translate(-19.8549 -41.18551)"/><path class="cls-7" d="M70.7327,445.1329c-6.729-4.0519-8.5977-16.2448-5.7397-23.5612s7.8261-13.9878,8.6306-21.8011c.6184-6.0063-1.3143-12.1853.1185-18.051,1.9338-7.9162,9.7079-14.0122,9.6649-22.1612-.024-4.5721-2.6008-8.8887-2.3676-13.4551.2857-5.6008,4.6112-10.0212,7.3025-14.9413,4.1195-7.5309,4.4385-16.461,5.8804-24.923s4.7214-17.5148,12.252-21.6352c1.0677,7.1973,2.9323,12.1331,2.2826,21.8717-.2334,3.4975-4.3357,10.1721-4.9322,17.8363-.3564,4.581-.6117,9.1693-.9177,13.7541-.2977,4.4614-.6129,9.0041-2.2361,13.1704-1.2441,3.1928-3.2303,6.0882-4.1593,9.3864-1.7478,6.205.464,12.949-.9546,19.2375-1.2018,5.3279-4.9197,9.898-5.7048,15.3029-1.1029,7.5942,3.7709,15.5189,1.212,22.7537-1.2697,3.5902-4.2453,6.4619-5.106,10.1717-.6679,2.8784.0251,5.9331-.5814,8.8252-.977,4.6589-9.8944,8.2309-14.6441,7.9159" transform="translate(-19.8549 -41.18551)"/><path class="cls-5" d="M104.5727,291.7317a1.85955,1.85955,0,0,1-.0318.4059c-.0406.3019-.093.6913-.1589,1.1809-.1608,1.0377-.3435,2.5619-.7056,4.5316-.3887,1.9813-1.4228,4.2074-2.2548,6.8945-.8769,2.6786-1.7512,5.7698-2.5286,9.2318-.7904,3.4598-1.4566,7.2903-2.1569,11.4133-.7227,4.0922-1.4633,8.6147-3.5345,12.8991-.9594,2.1531-2.0342,4.307-2.8445,6.6041a29.71489,29.71489,0,0,0-1.4657,7.2879,147.27091,147.27091,0,0,1-2.0695,15.7174c-2.1285,10.6431-4.1558,20.7803-6.001,30.0075-1.942,9.1903-3.6915,17.4698-5.1644,24.4403-1.4868,6.9192-2.693,12.533-3.5379,16.4648-.4245,1.9071-.7578,3.4043-.9949,4.4697-.114.4805-.2049.8627-.2751,1.1588a1.86634,1.86634,0,0,1-.1159.3903,1.8395,1.8395,0,0,1,.0494-.404c.0539-.2997.1234-.6863.2106-1.1724.2079-1.0713.5004-2.5771.8728-4.4951.7954-3.942,1.9313-9.5705,3.3313-16.5081,1.4332-6.9785,3.1355-15.2679,5.025-24.469,1.8285-9.2246,3.8373-19.359,5.9463-29.9992a149.01722,149.01722,0,0,0,2.0759-15.6659,30.25935,30.25935,0,0,1,1.5149-7.4338c.8351-2.3458,1.9247-4.5087,2.8844-6.6438,2.0592-4.2212,2.7988-8.6375,3.5506-12.7439.7229-4.1153,1.4186-7.9567,2.2414-11.4233.8099-3.4694,1.7201-6.5659,2.6341-9.2439.8731-2.6961,1.9385-4.9031,2.3548-6.8335.3954-1.9337.6236-3.4728.8258-4.4969.0929-.4852.1667-.871.2239-1.17A1.84638,1.84638,0,0,1,104.5727,291.7317Z" transform="translate(-19.8549 -41.18551)"/></g><g id="Chart"><rect class="cls-7" x="382.61429" y="246.57329" width="6.9695" height="22.517"/><rect class="cls-7" x="395.44299" y="237.30619" width="6.9696" height="31.7841"/><rect class="cls-7" x="409.09719" y="232.97859" width="6.9696" height="36.1117"/><rect class="cls-7" x="422.75149" y="228.41349" width="6.9695" height="40.6768"/></g><g id="Gears"><path class="cls-5" d="M167.51869,316.9724a4.784,4.784,0,0,1,1.4981.4687,6.30736,6.30736,0,0,1,2.9855,3.0218,6.38684,6.38684,0,0,1,.6093,2.9187,6.4874,6.4874,0,0,1-1.004,3.2723,6.494,6.494,0,0,1-2.8663,2.463,6.46486,6.46486,0,0,1-7.5145-1.6851,6.495,6.495,0,0,1-1.5403-3.4518,6.48657,6.48657,0,0,1,.4898-3.388,6.38657,6.38657,0,0,1,1.7979-2.3787,6.30719,6.30719,0,0,1,3.9899-1.4568,4.78517,4.78517,0,0,1,1.5546.2159c-.0068.0445-.554-.1102-1.5509-.0745a6.31681,6.31681,0,0,0-3.8282,1.5123,6.18921,6.18921,0,0,0-2.1207,5.5272,6.19035,6.19035,0,0,0,1.4766,3.2604,6.13908,6.13908,0,0,0,7.1027,1.5929,6.18983,6.18983,0,0,0,2.727-2.3173,6.19105,6.19105,0,0,0,.4435-5.9031,6.315,6.315,0,0,0-2.8156-3.0027C168.06689,317.1094,167.50589,317.0156,167.51869,316.9724Z" transform="translate(-19.8549 -41.18551)"/><path class="cls-5" d="M172.60019,310.1905a1.37052,1.37052,0,0,1-.0137-.2223c-.0038-.1657-.0091-.388-.0158-.6756-.0085-.6196-.0208-1.5121-.0369-2.6706l.0453.0564c-1.4777-.3224-3.4205-.7464-5.7706-1.2593l.1034-.0503c-.4598.9785-.9708,2.066-1.5175,3.2294l-.0273.0582-.06509.0028a14.44809,14.44809,0,0,0-3.762.6677l-.06871.0219-.0517-.0512c-.7908-.7829-1.6468-1.6305-2.5372-2.5119l.1607.0175q-2.3532,1.4988-4.9815,3.1725l.0582-.1689c.3727,1.0405.78321,2.1865,1.2039,3.3612l.0307.0855-.062.067a14.36747,14.36747,0,0,0-2.189,3.1184l-.0435.0843-.0954.0003c-1.1062.0039-2.326.0083-3.56829.0127l.1577-.1266c-.4038,1.8109-.8393,3.7637-1.2856,5.7651l-.0925-.1898c1.0043.4758,2.1072.9983,3.22459,1.5278l.0944.0447.00421.1047a14.4037,14.4037,0,0,0,.65569,3.7472l.0322.1014-.0754.0758c-.7886.7929-1.6489,1.6577-2.51779,2.5314l.0242-.2209c1.00149,1.5793,2.075,3.2721,3.16319,4.9881l-.2132-.0735c1.0623-.3784,2.2087-.7868,3.3635-1.1981l.1037-.0369.0807.0748a14.31572,14.31572,0,0,0,3.1054,2.1879l.0016.0008.0007.0005c.0439.0719-.0971-.1605.0986.1613v.0106l.0001.014v.0281l.0001.0563.0003.1123.0005.2246.0008.4487.0019.8949q.00181.89325.0035,1.7792l-.1418-.1767q2.92155.656,5.7636,1.294l-.202.0984q.7737-1.6275,1.532-3.223l.0465-.0977.1079-.0041a14.30584,14.30584,0,0,0,3.7478-.6497l.1019-.0321.0754.0753q1.2825,1.27875,2.5282,2.5207l-.2149-.0236q2.55616-1.6161,4.9919-3.1559l-.0681.1974q-.60735-1.71255-1.1931-3.3649l-.0331-.0933.0671-.0722a14.32355,14.32355,0,0,0,2.198-3.1097l.0443-.0847.095-.0001c1.2236-.0006,2.4098-.0011,3.5683-.0018l-.14719.1182c.45919-2.0265.89259-3.9395,1.30509-5.7606l.0761.1561c-1.1324-.5411-2.1951-1.049-3.2199-1.5388l-.0716-.0342-.0029-.0787a14.413,14.413,0,0,0-.6443-3.7629l-.0217-.0695.0509-.0508c.9184-.9163,1.7457-1.7416,2.52731-2.5213l-.01461.1332c-1.2161-1.9382-2.2521-3.5896-3.1391-5.0033l.0961.0331c-1.34639.4695-2.4508.8547-3.3708,1.1756l-.0339.0117-.0256-.0239a15.00874,15.00874,0,0,0-2.29209-1.7657l-.61371-.3699a1.48508,1.48508,0,0,1-.2021-.1247,1.79992,1.79992,0,0,1,.2169.0982c.141.0723.354.1822.6302.3451a14.00615,14.00615,0,0,1,2.3403,1.731l-.0593-.0121c.9158-.3327,2.0152-.732,3.3554-1.2189l.0609-.0221.03541.0553c.89939,1.4059,1.95,3.0481,3.183,4.9756l.04609.0721-.0607.0614c-.7763.7849-1.598,1.6158-2.51039,2.5382l.02929-.1202a14.6,14.6,0,0,1,.6773,3.8247l-.0744-.1128c1.0272.4848,2.0924.9875,3.2274,1.5231l.10041.0474-.02421.1089c-.4051,1.8228-.8307,3.7376-1.2816,5.7659l-.02619.1177-.12111.0004c-1.1585.0046-2.3447.0092-3.5683.014l.1391-.0846a14.62258,14.62258,0,0,1-2.238,3.1859l.034-.1652q.59,1.651,1.2014,3.3619l.04491.1258-.11311.0718q-2.43134,1.5441-4.9855,3.1659l-.1168.0742-.0983-.0978q-1.2489-1.24125-2.532-2.5167l.1769.0431a14.64145,14.64145,0,0,1-3.8398.6703l.1541-.1017q-.7569,1.5963-1.529,3.2245l-.0616.13-.1406-.0315q-2.84143-.63645-5.7642-1.291l-.1416-.0318-.0003-.1451-.0039-1.7792-.0019-.895-.001-.4486-.0005-.2247-.0002-.1123-.0001-.0562-.0001-.0281v-.0246c.1956.3213.0537.0888.0971.1604l-.0008-.0003-.0015-.0009a14.66606,14.66606,0,0,1-3.1842-2.2442l.1841.0378c-1.1549.4108-2.3016.8186-3.3641,1.1966l-.13609.0484-.07731-.1219c-1.08669-1.717-2.15869-3.4108-3.15879-4.9909l-.0762-.1205.1004-.1007c.8702-.8726,1.73149-1.7364,2.52109-2.5282l-.043.1768a14.73136,14.73136,0,0,1-.6656-3.8394l.0985.1491c-1.11639-.5316-2.21819-1.0564-3.22159-1.5342l-.1223-.0582.0298-.1318c.4512-2.0003.8913-3.9521,1.2996-5.7619l.0285-.1266.1294-.0002c1.24229-.0006,2.46219-.0014,3.56829-.0021l-.1387.0844a14.63271,14.63271,0,0,1,2.24691-3.1779l-.03121.1524c-.4162-1.1763-.8223-2.3239-1.19079-3.3659l-.03841-.1082.0966-.0608q2.62965-1.65765,4.9961-3.1494l.088-.0554.0729.073c.8854.8865,1.7367,1.7389,2.523,2.5263l-.1201-.0293a14.60247,14.60247,0,0,1,3.8257-.6531l-.0921.0609c.5561-1.1591,1.0759-2.2424,1.5436-3.2172l.0321-.067.0714.0165c2.3441.54,4.2819.9865,5.7557,1.3261l.0458.0105-.0005.046c-.0106,1.1484-.0187,2.0331-.0245,2.6471-.00529.2916-.0095.5166-.0125.6847A1.77386,1.77386,0,0,1,172.60019,310.1905Z" transform="translate(-19.8549 -41.18551)"/><path class="cls-10" d="M161.71789,265.3307a16.02074,16.02074,0,0,1,3.4799,2.4513l3.7181-1.3237,3.4946,5.5161-2.7846,2.7969a15.9973,15.9973,0,0,1,.7305,4.1942l3.564,1.6925-1.4298,6.3714-3.945.0088a15.97078,15.97078,0,0,1-2.4521,3.48l1.3236,3.7185-5.5152,3.4945-2.7972-2.7845a16.00471,16.00471,0,0,1-4.1944.7296l-1.6921,3.5641-6.37219-1.429-.0083-3.9454a15.97737,15.97737,0,0,1-3.48-2.4517l-3.7189,1.3237-3.4947-5.5161,2.7855-2.7969a16.03356,16.03356,0,0,1-.7304-4.1939l-3.5633-1.6926,1.4291-6.3718,3.945-.0082a15.96771,15.96771,0,0,1,2.452-3.4805l-1.3237-3.7185,5.5153-3.4946,2.7973,2.7851a16.00368,16.00368,0,0,1,4.19429-.7302l1.6921-3.5635,6.3714,1.4291.0092,3.9453Zm-5.6177,7.4975a7.00494,7.00494,0,1,0,5.302,8.3683A7.00483,7.00483,0,0,0,156.10019,272.8282Z" transform="translate(-19.8549 -41.18551)"/><g class="cls-3"><path class="cls-11" d="M161.71789,265.3307a16.02074,16.02074,0,0,1,3.4799,2.4513l3.7181-1.3237,3.4946,5.5161-2.7846,2.7969a15.9973,15.9973,0,0,1,.7305,4.1942l3.564,1.6925-1.4298,6.3714-3.945.0088a15.97078,15.97078,0,0,1-2.4521,3.48l1.3236,3.7185-5.5152,3.4945-2.7972-2.7845a16.00471,16.00471,0,0,1-4.1944.7296l-1.6921,3.5641-6.37219-1.429-.0083-3.9454a15.97737,15.97737,0,0,1-3.48-2.4517l-3.7189,1.3237-3.4947-5.5161,2.7855-2.7969a16.03356,16.03356,0,0,1-.7304-4.1939l-3.5633-1.6926,1.4291-6.3718,3.945-.0082a15.96771,15.96771,0,0,1,2.452-3.4805l-1.3237-3.7185,5.5153-3.4946,2.7973,2.7851a16.00368,16.00368,0,0,1,4.19429-.7302l1.6921-3.5635,6.3714,1.4291.0092,3.9453Zm-5.6177,7.4975a7.00494,7.00494,0,1,0,5.302,8.3683A7.00483,7.00483,0,0,0,156.10019,272.8282Z" transform="translate(-19.8549 -41.18551)"/></g><path class="cls-10" d="M138.6779,302.8653a9.32826,9.32826,0,0,1,2.0257,1.4269l2.1645-.7705,2.0343,3.2111-1.621,1.6281a9.31514,9.31514,0,0,1,.4253,2.4416l2.0747.9853-.8324,3.709-2.2965.0051a9.29419,9.29419,0,0,1-1.4274,2.0259l.7705,2.1646-3.2106,2.0343-1.6284-1.621a9.31662,9.31662,0,0,1-2.4416.4248l-.985,2.0747-3.7095-.8318-.0049-2.2968a9.30337,9.30337,0,0,1-2.0258-1.4272l-2.1649.7705-2.0343-3.2111,1.6215-1.6281a9.33761,9.33761,0,0,1-.4252-2.4414l-2.0743-.9853.8319-3.7092,2.2965-.0048a9.29545,9.29545,0,0,1,1.4274-2.0261l-.7706-2.1647,3.2107-2.0343,1.6284,1.6213a9.31618,9.31618,0,0,1,2.4416-.4251l.9851-2.0744,3.7089.8319.0054,2.2967Zm-3.2702,4.3645a4.07782,4.07782,0,1,0,3.0864,4.8715A4.07787,4.07787,0,0,0,135.4077,307.2298Z" transform="translate(-19.8549 -41.18551)"/><g class="cls-12"><path class="cls-11" d="M138.6779,302.8653a9.32826,9.32826,0,0,1,2.0257,1.4269l2.1645-.7705,2.0343,3.2111-1.621,1.6281a9.31514,9.31514,0,0,1,.4253,2.4416l2.0747.9853-.8324,3.709-2.2965.0051a9.29419,9.29419,0,0,1-1.4274,2.0259l.7705,2.1646-3.2106,2.0343-1.6284-1.621a9.31662,9.31662,0,0,1-2.4416.4248l-.985,2.0747-3.7095-.8318-.0049-2.2968a9.30337,9.30337,0,0,1-2.0258-1.4272l-2.1649.7705-2.0343-3.2111,1.6215-1.6281a9.33761,9.33761,0,0,1-.4252-2.4414l-2.0743-.9853.8319-3.7092,2.2965-.0048a9.29545,9.29545,0,0,1,1.4274-2.0261l-.7706-2.1647,3.2107-2.0343,1.6284,1.6213a9.31618,9.31618,0,0,1,2.4416-.4251l.9851-2.0744,3.7089.8319.0054,2.2967Zm-3.2702,4.3645a4.07782,4.07782,0,1,0,3.0864,4.8715A4.07787,4.07787,0,0,0,135.4077,307.2298Z" transform="translate(-19.8549 -41.18551)"/></g></g><g id="Character"><path class="cls-5" d="M359.53309,266.0651a9.76542,9.76542,0,0,0,7.0643-9.7448c-.122-1.9568-.8501-3.8615-.7665-5.8203.1299-3.0406,2.1478-5.6108,3.666-8.2484s2.5373-6.1159.7675-8.5917c-1.1482-1.6061-3.1752-2.3296-4.5658-3.731-1.3609-1.3714-2.007-3.2728-2.73559-5.0623s-1.67391-3.6351-3.35281-4.5912-4.2539-.5315-4.9357,1.2763" transform="translate(-19.8549 -41.18551)"/><path class="cls-5" d="M341.36659,216.7358c2.9956-1.9016,3.7191-6.3128,2.0957-9.4677s-5.0684-5.0712-8.57129-5.6364a16.33052,16.33052,0,0,0-14.06951,4.6625c-1.9336,1.9908-3.4997,4.5879-6.1208,5.5002-2.3042.8019-4.8532.0779-7.2728.3914a10.97487,10.97487,0,0,0-7.6861,5.5418,23.69195,23.69195,0,0,0-2.7332,9.3475c-.3527,2.9808-.5853,6.2519-2.6533,8.4273-2.0166,2.1213-5.2022,2.5707-7.71,4.0798a10.55294,10.55294,0,0,0-3.1342,14.4145c.9926,1.4481,2.4175,2.7763,2.5327,4.5282.10521,1.5997-.9287,3.0238-1.4129,4.5521a7.12337,7.12337,0,0,0,6.0945,8.8453c2.0801.1195,4.3088-.6915,6.1733.2385,1.8521.9238,2.5415,3.1575,3.7261,4.8547a8.90793,8.90793,0,0,0,10.8604,2.8049c1.5301-.7503,2.9749-1.989,4.6752-1.8745,1.6968.1144,3.0325,1.5632,4.7021,1.8861,2.1857.4227,4.2611-1.1871,5.5607-2.9946s2.2054-3.937,3.86881-5.4165c2.17809-1.9373,5.238-2.4159,7.99419-3.365a22.54948,22.54948,0,0,0,12.7341-31.5887" transform="translate(-19.8549 -41.18551)"/><path class="cls-13" d="M347.94709,220.6698a4.78921,4.78921,0,0,1,4.27391,4.8666h0l-2.85721,64.672c-.1194,7.6381-11.2844,11.9297-19.4619,11.7395h0c-8.2583-.1922-8.5246-4.2423-8.6276-11.5089-.1726-12.1403-.1581-16.6975-.1627-16.6283,0,0-10.4314-1.7557-12.5633-15.3755-1.0602-6.7733-.6954-17.8742-.1037-26.9475.5329-8.1668,5.9666-18.1764,14.10341-17.2974Z" transform="translate(-19.8549 -41.18551)"/><path class="cls-5" d="M311.44069,240.3023a1.74619,1.74619,0,0,0,1.6799,1.7654,1.67,1.67,0,0,0,1.80341-1.5703,1.74694,1.74694,0,0,0-1.67781-1.7664A1.67159,1.67159,0,0,0,311.44069,240.3023Z" transform="translate(-19.8549 -41.18551)"/><path class="cls-5" d="M310.84009,237.2682c.21591.2281,1.5411-.7479,3.42-.7388,1.877-.0178,3.2537.9519,3.4582.7223.1004-.1016-.1195-.5131-.7188-.9517a4.79222,4.79222,0,0,0-2.7677-.8598,4.60043,4.60043,0,0,0-2.7227.8723C310.93029,236.7546,310.73369,237.166,310.84009,237.2682Z" transform="translate(-19.8549 -41.18551)"/><path class="cls-5" d="M330.17,240.3023a1.74584,1.74584,0,0,0,1.67959,1.7654,1.6701,1.6701,0,0,0,1.80341-1.5703,1.74694,1.74694,0,0,0-1.67821-1.7664A1.67089,1.67089,0,0,0,330.17,240.3023Z" transform="translate(-19.8549 -41.18551)"/><path class="cls-5" d="M329.30849,237.6598c.21651.2281,1.5429-.7478,3.4206-.7386,1.8767-.018,3.25391.9517,3.4581.7221.1-.1018-.11719-.513-.719-.9515a4.78958,4.78958,0,0,0-2.7675-.8602,4.60518,4.60518,0,0,0-2.7228.8724C329.40059,237.1461,329.20279,237.5575,329.30849,237.6598Z" transform="translate(-19.8549 -41.18551)"/><path class="cls-5" d="M322.45879,251.579a12.44326,12.44326,0,0,0-3.0507-.5575c-.4796-.0506-.9335-.1469-1.0137-.4743a2.444,2.444,0,0,1,.3234-1.4216q.6807-1.74,1.4271-3.6502c1.9818-5.1973,3.4178-9.4715,3.2078-9.5493-.2099-.078-1.9872,4.0714-3.9688,9.2687q-.71534,1.92255-1.3674,3.6723a2.77642,2.77642,0,0,0-.2531,1.8825,1.20449,1.20449,0,0,0,.7875.7033,3.253,3.253,0,0,0,.8146.115A12.21213,12.21213,0,0,0,322.45879,251.579Z" transform="translate(-19.8549 -41.18551)"/><path class="cls-14" d="M321.11159,273.8107a34.63577,34.63577,0,0,0,18.2446-4.8236s-4.6209,9.5994-18.2446,8.2953Z" transform="translate(-19.8549 -41.18551)"/><path class="cls-7" d="M323.24339,256.1091a3.385,3.385,0,0,1,3.0378-1.2507,3.08933,3.08933,0,0,1,2.132,1.1497,1.95851,1.95851,0,0,1,.144,2.2398,2.27223,2.27223,0,0,1-2.4646.6175,7.11485,7.11485,0,0,1-2.3984-1.4387,2.0799,2.0799,0,0,1-.5353-.5568.62808.62808,0,0,1,.0043-.6993" transform="translate(-19.8549 -41.18551)"/><path class="cls-5" d="M327.98549,252.8909c-.30549-.0183-.314,2.0211-2.063,3.4648-1.74549,1.4485-3.9192,1.2145-3.9357,1.4998-.02879.1278.4833.3972,1.4007.4241a5.07865,5.07865,0,0,0,3.2854-1.1366,4.42235,4.42235,0,0,0,1.5988-2.9053C328.35139,253.3853,328.125,252.8795,327.98549,252.8909Z" transform="translate(-19.8549 -41.18551)"/><path class="cls-5" d="M328.47059,234.3681c.1842.5111,2.0609.2733,4.26441.5438,2.20959.2264,3.98569.8756,4.27919.418.131-.219-.1778-.7001-.8954-1.1963a7.47306,7.47306,0,0,0-6.5092-.733C328.79979,233.7249,328.39149,234.1254,328.47059,234.3681Z" transform="translate(-19.8549 -41.18551)"/><path class="cls-5" d="M311.54289,231.8318c.3296.4273,1.625-.0126,3.1815-.03,1.5558-.0719,2.8739.2931,3.1784-.1526.1334-.2165-.0733-.6443-.6484-1.0496a4.60638,4.60638,0,0,0-5.1242.1471C311.57919,231.1842,311.39769,231.6232,311.54289,231.8318Z" transform="translate(-19.8549 -41.18551)"/><path class="cls-5" d="M339.00989,216.2415a13.22125,13.22125,0,0,1,10.7917-2.0207c3.6327,1.0434,6.6427,4.3161,6.7651,8.0161.0797,2.4053-.9589,4.9624.1086,7.1308,1.0161,2.0639,3.5191,2.9043,5.2936,4.3998a8.12329,8.12329,0,0,1,1.8812,9.8235c-1.48609,2.7293-4.6123,4.7295-4.8742,7.8108-.2465,2.899,2.1968,5.3455,2.7915,8.1958.6562,3.1446-1.0848,6.3973-3.5793,8.4833s-5.6464,3.235-8.7267,4.3438c-2.40339.8651-4.9775,1.743-7.47239,1.1773a7.65035,7.65035,0,0,1-5.60011-6.3859,10.40767,10.40767,0,0,1,2.8352-8.2186c1.7485-1.9258,4.2011-3.5623,4.6213-6.1045.6544-3.9591-4.0629-7.2126-3.7723-11.2131.14991-2.0632,1.6045-3.7711,2.8157-5.467s2.2677-3.8304,1.5243-5.7669c-.96609-2.5168-4.2745-3.173-6.273-5.0193a6.112,6.112,0,0,1-1.6704-6.1915,6.30354,6.30354,0,0,1,4.9361-4.2082" transform="translate(-19.8549 -41.18551)"/><path class="cls-5" d="M340.47429,213.1719a9.31453,9.31453,0,0,1-10.99,9.1981c-2.0801-.3803-4.3596-1.4316-6.16029-.3233-1.89391,1.1656-1.97211,4.0202-3.65151,5.478-2.4002,2.0834-6.2167.1286-9.2638,1.0324-2.353.6979-3.8228,2.9469-5.386,4.839s-3.9049,3.6911-6.2578,2.9928a27.62784,27.62784,0,0,1,.9337-6.278,9.28533,9.28533,0,0,1,3.5651-5.1151,34.38406,34.38406,0,0,0,3.0092-1.751c1.9533-1.5767,2.4057-4.3212,3.6117-6.5227a10.209,10.209,0,0,1,7.7772-5.1594c2.6785-.2738,5.4383.5298,8.049-.1284,1.9299-.4865,3.6155-1.7393,5.5708-2.1108,3.8077-.7236,7.3471,2.0087,10.1076,4.7293" transform="translate(-19.8549 -41.18551)"/><path class="cls-15" d="M365.34279,245.7189a2.948,2.948,0,0,0,.3023-1.5703,3.95325,3.95325,0,0,0-2.7413-3.1316,20.24464,20.24464,0,0,0-2.9929-.8059,8.76234,8.76234,0,0,1-3.38989-1.3969,4.77764,4.77764,0,0,1-1.76431-3.6427,38.37,38.37,0,0,1,.2104-4.2863,9.82859,9.82859,0,0,0-.1069-2.0948,4.481,4.481,0,0,0-.8027-1.7876,6.83846,6.83846,0,0,0-3.278-1.8805,14.7307,14.7307,0,0,1-3.3386-1.4396,11.75331,11.75331,0,0,1-4.86489-5.8888,8.09479,8.09479,0,0,1-.34941-1.1919,1.36153,1.36153,0,0,1-.06059-.4294c.04739-.0121.182.5685.59819,1.5462a12.13955,12.13955,0,0,0,2.4824,3.6995,12.29388,12.29388,0,0,0,5.6856,3.249,7.22,7.22,0,0,1,3.5219,2.0145,4.96653,4.96653,0,0,1,.9143,2.0079,10.19651,10.19651,0,0,1,.1189,2.2199,40.31931,40.31931,0,0,0-.2215,4.2283,4.30059,4.30059,0,0,0,1.55,3.2977,8.47171,8.47171,0,0,0,3.1955,1.3555,19.54,19.54,0,0,1,3.0334.8857,4.7923,4.7923,0,0,1,2.1105,1.5841,3.62784,3.62784,0,0,1,.6919,1.8707,2.382,2.382,0,0,1-.2465,1.2343A.93359.93359,0,0,1,365.34279,245.7189Z" transform="translate(-19.8549 -41.18551)"/><path class="cls-15" d="M285.14609,254.2156a.85019.85019,0,0,1-.2229-.1045,1.50481,1.50481,0,0,1-.5111-.5153,2.75094,2.75094,0,0,1,.2775-2.6893,3.59287,3.59287,0,0,1,1.4581-1.3947,18.7572,18.7572,0,0,1,2.189-.9234,6.75363,6.75363,0,0,0,2.2902-1.2982,4.90407,4.90407,0,0,0,1.3085-2.5826c.2294-1.0223.2967-2.1382.4821-3.3006a7.23225,7.23225,0,0,1,1.3508-3.4321c1.5855-2.0899,4.1836-3.1997,6.1224-5.1584a9.42947,9.42947,0,0,0,2.127-3.6067,24.7972,24.7972,0,0,0,.9629-4.3603c.4213-2.9903.8457-6.3422,2.85941-9.0792a6.63067,6.63067,0,0,1,4.108-2.6539,14.39426,14.39426,0,0,1,4.74149.1185,17.22413,17.22413,0,0,0,4.4299.2587,5.75891,5.75891,0,0,0,3.6193-1.869c1.8587-2.0035,2.92631-4.703,5.2102-6.0841a8.70613,8.70613,0,0,1,6.8785-.9477,7.6254,7.6254,0,0,1,4.5275,3.5196,8.56525,8.56525,0,0,1,1.17611,4.1986,7.36954,7.36954,0,0,1-.43541,2.7235,4.58126,4.58126,0,0,1-.4012.8735c-.0266-.0117.1201-.3102.3015-.9063a7.74277,7.74277,0,0,0,.3325-2.6848,8.47556,8.47556,0,0,0-1.22339-4.0551,7.34033,7.34033,0,0,0-4.37671-3.3143,8.34369,8.34369,0,0,0-6.548.9577,9.57792,9.57792,0,0,0-2.6275,2.7113,30.26337,30.26337,0,0,1-2.4657,3.3381,6.78246,6.78246,0,0,1-1.7389,1.3627,6.4451,6.4451,0,0,1-2.1649.6695,17.56562,17.56562,0,0,1-4.5631-.2464,13.99163,13.99163,0,0,0-4.5711-.1159,6.1135,6.1135,0,0,0-3.7933,2.4593,12.611,12.611,0,0,0-1.94579,4.2679,42.04835,42.04835,0,0,0-.825,4.5749,25.10955,25.10955,0,0,1-.99721,4.4456,9.895,9.895,0,0,1-2.25379,3.7796c-2.05331,2.0346-4.62611,3.1204-6.12231,5.0849a6.8317,6.8317,0,0,0-1.2978,3.2362c-.1925,1.1342-.2705,2.2576-.5195,3.3167a5.23294,5.23294,0,0,1-1.4397,2.7411,6.99265,6.99265,0,0,1-2.4148,1.33,19.18786,19.18786,0,0,0-2.1758.8703,3.39706,3.39706,0,0,0-1.4015,1.281,2.666,2.666,0,0,0-.3584,2.5335A2.19162,2.19162,0,0,0,285.14609,254.2156Z" transform="translate(-19.8549 -41.18551)"/><path class="cls-7" d="M251.73519,347.9508l24.152-2.2136s14.86281-39.1465,33.1849-48.6393L320.94,317.8291l-25.40511,47.735h-49.6055Z" transform="translate(-19.8549 -41.18551)"/><path class="cls-16" d="M251.73519,347.9508l24.152-2.2136s14.86281-39.1465,33.1849-48.6393L320.94,317.8291l-25.40511,47.735h-49.6055Z" transform="translate(-19.8549 -41.18551)"/><path class="cls-9" d="M261.27809,359.006a37.345,37.345,0,0,1,4.5176-7.5565,37.333,37.333,0,0,1-4.5176,7.5565Z" transform="translate(-19.8549 -41.18551)"/><path class="cls-9" d="M278.38879,358.5318a37.06445,37.06445,0,0,1-5.49579-6.8367,37.06682,37.06682,0,0,1,5.49579,6.8367Z" transform="translate(-19.8549 -41.18551)"/><path class="cls-9" d="M281.36,349.555a19.38383,19.38383,0,0,1,0-6.3333,19.3853,19.3853,0,0,1,0,6.3333Z" transform="translate(-19.8549 -41.18551)"/><path class="cls-9" d="M272.86,363.5549a6.65663,6.65663,0,0,1-2.30911-1.1986c-1.1968-.7825-2.10289-1.5143-2.0242-1.6347a6.66132,6.66132,0,0,1,2.3092,1.1989C272.03239,362.7028,272.93869,363.4346,272.86,363.5549Z" transform="translate(-19.8549 -41.18551)"/><path class="cls-9" d="M286.72719,327.5702a41.864,41.864,0,0,1-3.8121,8.5095,41.88165,41.88165,0,0,1,3.8121-8.5095Z" transform="translate(-19.8549 -41.18551)"/><path class="cls-9" d="M296.51579,311.7073c.0869.1147-.7765.9152-1.9281,1.7879a6.797,6.797,0,0,1-2.243,1.373c-.0868-.1146.7764-.915,1.9284-1.788A6.80541,6.80541,0,0,1,296.51579,311.7073Z" transform="translate(-19.8549 -41.18551)"/><path class="cls-7" d="M332.64059,362.4692,345.096,312.1619a17.11291,17.11291,0,0,1,19.64679-12.7289h0a17.113,17.113,0,0,1,13.8755,19.4644l-7.6258,49.1678a24.60051,24.60051,0,0,1-20.4109,19.9025l-9.9011,1.5448Z" transform="translate(-19.8549 -41.18551)"/><path class="cls-5" d="M371.89549,296.1827a11.25936,11.25936,0,0,0-4.4438-2.2329,11.84737,11.84737,0,0,0-5.3611.0371,14.54215,14.54215,0,0,0-5.8271,3.0387c-3.6513,3.0599-5.6379,7.0362-6.9872,9.8216-.6676,1.4147-1.1754,2.5776-1.5378,3.3766a6.95285,6.95285,0,0,1-.6083,1.2229,6.78481,6.78481,0,0,1,.42081-1.2999c.30509-.8234.76169-2.0098,1.39029-3.4525a37.46269,37.46269,0,0,1,2.5605-4.9095,21.83551,21.83551,0,0,1,4.4285-5.1595,14.652,14.652,0,0,1,6.05171-3.1059,11.84874,11.84874,0,0,1,5.55849.073,9.46275,9.46275,0,0,1,3.3748,1.6292,6.3854,6.3854,0,0,1,.7558.6846C371.83109,296.0756,371.90819,296.17,371.89549,296.1827Z" transform="translate(-19.8549 -41.18551)"/><path class="cls-5" d="M301.32939,307.5027a2.45944,2.45944,0,0,1-.3482.4672c-.2803.3355-.633.7577-1.0659,1.2757-.9217,1.1098-2.2376,2.7318-3.7368,4.8265a51.40806,51.40806,0,0,0-8.504,18.0531c-1.7379,7.6712-1.8232,14.8543-2.1181,19.9995-.1241,2.5801-.2455,4.6684-.35639,6.1095-.05951.6733-.10811,1.222-.14661,1.658a2.45419,2.45419,0,0,1-.0875.5756,2.44923,2.44923,0,0,1-.0173-.5821c.0129-.4372.0291-.9874.049-1.6626.0473-1.5144.112-3.5852.1909-6.113.2016-5.145.225-12.3549,1.97851-20.1018a49.70291,49.70291,0,0,1,8.71369-18.1528c1.5459-2.0787,2.91031-3.6708,3.8815-4.7426.4813-.54.8776-.9388,1.1412-1.2134A2.44255,2.44255,0,0,1,301.32939,307.5027Z" transform="translate(-19.8549 -41.18551)"/><path class="cls-7" d="M381.15049,307.3942c-1.3664-8.9955-6.3352-11.155-11.4807-13.9559-1.6824-.9157-9.7932-2.9976-16.22279-4.5652-.61431-3.8976-1.71491-10.8703-1.95651-12.3428-.33949-2.0685-32.7567,3.1028-33.1669,3.8785-.2721.5145-1.0185,8.5926-1.49059,13.9764l-7.76091,2.7127-10.1296,12.8794-5.2723,7.4865a40.32793,40.32793,0,0,0-6.5297,14.3732,78.42873,78.42873,0,0,0-1.4537,17.4201l-1.5661,33.0259,67.8259,19.1793,5.251-33.4548,17.4982-23.8191C376.18989,334.5548,382.83059,318.455,381.15049,307.3942Z" transform="translate(-19.8549 -41.18551)"/><path class="cls-5" d="M323.26309,295.4241a10.41376,10.41376,0,0,1-.4509-2.2914c-.2125-1.4233-.47019-3.3937-.7228-5.5736-.1178-1.0786-.2301-2.1064-.3359-3.076a21.632,21.632,0,0,1-.1796-2.5431,3.061,3.061,0,0,1,.483-1.69c.2617-.3396.4864-.4322.5003-.4097.0284.0337-.1453.1814-.3285.5172a3.25252,3.25252,0,0,0-.2866,1.585c.0183.6935.1741,1.5395.288,2.4853.1187.9682.2446,1.9944.3766,3.0713.2526,2.18.4524,4.157.5712,5.5912A10.42364,10.42364,0,0,1,323.26309,295.4241Z" transform="translate(-19.8549 -41.18551)"/><path class="cls-5" d="M331.91149,293.3804a7.8217,7.8217,0,0,1-.7219-2.0969,33.58833,33.58833,0,0,1-.9808-10.6217,7.815,7.815,0,0,1,.3257-2.1935c.1604.013-.1334,3.3761.259,7.4961C331.162,290.0851,332.06679,293.3382,331.91149,293.3804Z" transform="translate(-19.8549 -41.18551)"/><path class="cls-5" d="M348.00589,291.0406a25.48861,25.48861,0,0,0-2.5212-14.5457,6.72137,6.72137,0,0,1,1.1885,1.8821,18.94677,18.94677,0,0,1,1.8184,10.4911A6.72591,6.72591,0,0,1,348.00589,291.0406Z" transform="translate(-19.8549 -41.18551)"/><path class="cls-9" d="M301.94859,320.4564a31.15617,31.15617,0,0,1,5.9481-7.9297,99.0905,99.0905,0,0,1-5.9481,7.9297Z" transform="translate(-19.8549 -41.18551)"/><path class="cls-9" d="M317.22579,308.0302a32.40425,32.40425,0,0,1-4.9799-6.5154,32.42346,32.42346,0,0,1,4.9799,6.5154Z" transform="translate(-19.8549 -41.18551)"/><path class="cls-9" d="M333.19329,300.2216a120.96464,120.96464,0,0,1-6.5,6.3334,23.8477,23.8477,0,0,1,6.5-6.3334Z" transform="translate(-19.8549 -41.18551)"/><path class="cls-9" d="M328.70879,290.7046a18.91448,18.91448,0,0,1-4.63679-4.1997,18.92127,18.92127,0,0,1,4.63679,4.1997Z" transform="translate(-19.8549 -41.18551)"/><path class="cls-9" d="M342.69779,283.2426a23.62792,23.62792,0,0,1-6.84079,1.4651,23.62478,23.62478,0,0,1,6.84079-1.4651Z" transform="translate(-19.8549 -41.18551)"/><path class="cls-9" d="M345.49659,305.3898a23.70505,23.70505,0,0,1-.3537-6.9989,23.70687,23.70687,0,0,1,.3537,6.9989Z" transform="translate(-19.8549 -41.18551)"/><path class="cls-9" d="M340.39549,316.0421a37.29193,37.29193,0,0,1-3.0139-8.2676,37.31142,37.31142,0,0,1,3.0139,8.2676Z" transform="translate(-19.8549 -41.18551)"/><path class="cls-9" d="M326.54039,323.5497a41.51182,41.51182,0,0,1-3.363-8.6552,41.53478,41.53478,0,0,1,3.363,8.6552Z" transform="translate(-19.8549 -41.18551)"/><path class="cls-9" d="M313.496,332.0613a36.14634,36.14634,0,0,1-1.73731-8.4856,36.14525,36.14525,0,0,1,1.73731,8.4856Z" transform="translate(-19.8549 -41.18551)"/><path class="cls-9" d="M298.00119,332.4008a34.79723,34.79723,0,0,1-3.7217-7.6399,34.80273,34.80273,0,0,1,3.7217,7.6399Z" transform="translate(-19.8549 -41.18551)"/><path class="cls-9" d="M297.66709,342.3352a41.7893,41.7893,0,0,1-8.3534,4.1261,41.80326,41.80326,0,0,1,8.3534-4.1261Z" transform="translate(-19.8549 -41.18551)"/><path class="cls-9" d="M297.86,358.055a17.89476,17.89476,0,0,1-2-7.5,79.46625,79.46625,0,0,1,2,7.5Z" transform="translate(-19.8549 -41.18551)"/><path class="cls-9" d="M294.65459,369.0974a33.79355,33.79355,0,0,1-6.1782-5.6541,33.80466,33.80466,0,0,1,6.1782,5.6541Z" transform="translate(-19.8549 -41.18551)"/><path class="cls-9" d="M315.07189,361.5625c.0383.1496-2.2583.8052-4.9382,1.9873-2.6868,1.1691-4.7252,2.4128-4.8093,2.2832a21.09345,21.09345,0,0,1,9.7475-4.2705Z" transform="translate(-19.8549 -41.18551)"/><path class="cls-9" d="M309.10049,356.0873a26.64928,26.64928,0,0,1-2.4451-7.0191,26.653,26.653,0,0,1,2.4451,7.0191Z" transform="translate(-19.8549 -41.18551)"/><path class="cls-9" d="M321.21379,342.5679a59.22637,59.22637,0,0,1-5.916,9.3863,59.23554,59.23554,0,0,1,5.916-9.3863Z" transform="translate(-19.8549 -41.18551)"/><path class="cls-9" d="M334.22529,343.865a30.83588,30.83588,0,0,1-5.7654-9.6111c.1359-.0643,1.2979,2.1577,2.88911,4.802C332.93239,341.7038,334.346,343.7755,334.22529,343.865Z" transform="translate(-19.8549 -41.18551)"/><path class="cls-9" d="M342.02129,331.023a15.35456,15.35456,0,0,1-7.66229.3803,217.12814,217.12814,0,0,1,7.66229-.3803Z" transform="translate(-19.8549 -41.18551)"/><path class="cls-9" d="M360.52859,316.3924a59.32793,59.32793,0,0,1-10.0267,4.7773,59.35624,59.35624,0,0,1,10.0267-4.7773Z" transform="translate(-19.8549 -41.18551)"/><path class="cls-9" d="M361.75989,307.088a38.53345,38.53345,0,0,1,3.9728-8.0135,38.53367,38.53367,0,0,1-3.9728,8.0135Z" transform="translate(-19.8549 -41.18551)"/><path class="cls-9" d="M373.52349,314.3891a32.74468,32.74468,0,0,1-1.5193-4.5495,32.74782,32.74782,0,0,1-1.3448-4.6046,27.005,27.005,0,0,1,2.8641,9.1541Z" transform="translate(-19.8549 -41.18551)"/><path class="cls-9" d="M375.36509,324.0696a23.50384,23.50384,0,0,1-9.0067,2.3087,191.70651,191.70651,0,0,1,9.0067-2.3087Z" transform="translate(-19.8549 -41.18551)"/><path class="cls-9" d="M355.21329,335.8923c-.1515-.0308.2773-2.4647.39871-5.494.13619-3.0297-.08431-5.4907.06929-5.5086a22.45316,22.45316,0,0,1-.468,11.0026Z" transform="translate(-19.8549 -41.18551)"/><path class="cls-9" d="M351.19339,348.055a24.65237,24.65237,0,0,1-6.5-7.8333c.1262-.0824,1.45,1.7709,3.2422,3.9234C349.72,346.3027,351.29759,347.9461,351.19339,348.055Z" transform="translate(-19.8549 -41.18551)"/><path class="cls-9" d="M371.40429,345.4945a41.251,41.251,0,0,1-8.5416,3.5671,41.26681,41.26681,0,0,1,8.5416-3.5671Z" transform="translate(-19.8549 -41.18551)"/><path class="cls-9" d="M364.16259,368.388a58.22274,58.22274,0,0,1,.1106-11.0005,58.22162,58.22162,0,0,1-.1106,11.0005Z" transform="translate(-19.8549 -41.18551)"/><path class="cls-9" d="M348.64719,367.074a31.891,31.891,0,0,1,2.7727-11.0561c.1416.0504-.6198,2.4843-1.3793,5.5301C349.27309,364.5908,348.79579,367.0964,348.64719,367.074Z" transform="translate(-19.8549 -41.18551)"/><path class="cls-9" d="M349.36169,373.0808c.0086.1507-2.4851.3887-5.5236.8952-3.0412.4973-5.4784,1.0734-5.5187.9279a29.40363,29.40363,0,0,1,11.0423-1.8231Z" transform="translate(-19.8549 -41.18551)"/><path class="cls-9" d="M332.20119,369.2293a39.65442,39.65442,0,0,1,6.30481-6.5276,39.678,39.678,0,0,1-6.30481,6.5276Z" transform="translate(-19.8549 -41.18551)"/><path class="cls-9" d="M321.087,380.0427a36.30993,36.30993,0,0,1-1.35141-3.9128,36.31321,36.31321,0,0,1-1.3972-3.8971,15.99375,15.99375,0,0,1,2.74861,7.8099Z" transform="translate(-19.8549 -41.18551)"/><path class="cls-9" d="M339.02659,386.2219a55.53959,55.53959,0,0,1-9.8217-4.3596,55.58277,55.58277,0,0,1,9.8217,4.3596Z" transform="translate(-19.8549 -41.18551)"/><path class="cls-9" d="M307.75609,384.4092a27.38988,27.38988,0,0,1,2.3755-7.1527,27.39981,27.39981,0,0,1-2.3755,7.1527Z" transform="translate(-19.8549 -41.18551)"/><path class="cls-9" d="M328.35859,387.8961c-.0283.1517-2.8725-.3086-6.4081-.4897-3.536-.1951-6.4124-.0391-6.42449-.193a31.17625,31.17625,0,0,1,12.83259.6827Z" transform="translate(-19.8549 -41.18551)"/><path class="cls-5" d="M332.64059,358.4082a1.2051,1.2051,0,0,1-.0263-.3944,3.69607,3.69607,0,0,1,.1609-1.1347,2.50806,2.50806,0,0,1,1.0866-1.4878,3.49245,3.49245,0,0,1,2.4413-.4033l-.2045.1192c1.0957-3.8348,2.8439-9.4381,4.5937-15.7165,1.6392-5.8774,2.7434-11.2919,3.5201-15.2163.3737-1.8988.6825-3.467.9153-4.6499a11.14022,11.14022,0,0,1,.3958-1.6954,11.09562,11.09562,0,0,1-.1961,1.73c-.1578,1.1088-.4127,2.7089-.753,4.6825-.68439,3.944-1.7355,9.391-3.3799,15.2872-1.7548,6.2955-3.5657,11.8757-4.7627,15.6799l-.04679.1486-.158-.0293a3.24426,3.24426,0,0,0-2.22261.2971,2.34431,2.34431,0,0,0-1.0495,1.3148A14.04838,14.04838,0,0,0,332.64059,358.4082Z" transform="translate(-19.8549 -41.18551)"/><path class="cls-5" d="M355.06429,372.3165c-.0857.0398-.7007-1.3146-1.9722-3.333a34.38157,34.38157,0,0,0-13.6039-12.3638c-2.1304-1.0733-3.537-1.5563-3.5055-1.6455a4.03864,4.03864,0,0,1,1.0129.2655,22.47848,22.47848,0,0,1,2.653,1.0486,31.15592,31.15592,0,0,1,13.7582,12.504,22.491,22.491,0,0,1,1.2968,2.5411A4.03213,4.03213,0,0,1,355.06429,372.3165Z" transform="translate(-19.8549 -41.18551)"/><g class="cls-17"><path d="M336.54539,354.2384a35.161,35.161,0,0,1,10.5459,1.9081c3.5898,1.3456,6.9076,3.9213,8.2278,7.5205a2.481,2.481,0,0,1-.18709,2.5979,1.851,1.851,0,0,1-1.89491.305,4.996,4.996,0,0,1-1.6557-1.1385c-2.2049-2.0389-4.48939-3.8408-6.7656-5.7998s-5.582-4.02-8.5507-4.4736" transform="translate(-19.8549 -41.18551)"/></g><path class="cls-5" d="M329.33639,347.8595a4.63914,4.63914,0,0,1-1.043.6036,18.2379,18.2379,0,0,1-3.07639,1.16,20.546,20.546,0,0,1-20.13611-5.2294,18.22831,18.22831,0,0,1-2.1231-2.5102,4.64731,4.64731,0,0,1-.6175-1.0347c.0834-.0624.9941,1.4055,2.9958,3.2795a21.1925,21.1925,0,0,0,19.787,5.1388C327.78379,348.6039,329.29389,347.7645,329.33639,347.8595Z" transform="translate(-19.8549 -41.18551)"/><g class="cls-17"><path d="M302.88319,341.621c1.6826,3.6621,3.661,7.3456,6.8539,9.8047a10.99156,10.99156,0,0,0,6.31591,2.6476c3.338.055,6.20459-2.2225,8.75229-4.3799-8.2511,1.2916-17.5514-2.4515-21.9221-8.0724" transform="translate(-19.8549 -41.18551)"/></g><path class="cls-5" d="M339.85519,292.6161c-.1589-.0093.0325-3.4346-.3791-7.624-.391-4.1929-1.2289-7.5189-1.0746-7.5582a8.2525,8.2525,0,0,1,.6932,2.1451,38.45783,38.45783,0,0,1,1.0341,10.7992A8.24988,8.24988,0,0,1,339.85519,292.6161Z" transform="translate(-19.8549 -41.18551)"/><path class="cls-7" d="M221.23659,426.4399s-10.8681,2.3489-20.5714.8938c-9.0974-1.3641-29.4659.0471-29.4587,12.0369.0081,13.3726,27.1694,10.0683,37.7673,7.9487s21.1501-4.0403,21.1501-4.0403Z" transform="translate(-19.8549 -41.18551)"/><path class="cls-5" d="M196.84389,443.571a44.89958,44.89958,0,0,1-2.1174-9.422,44.90165,44.90165,0,0,1,2.1174,9.422Z" transform="translate(-19.8549 -41.18551)"/><path class="cls-5" d="M200.551,443.7473a45.33744,45.33744,0,0,1-1.31891-9.6145,45.35092,45.35092,0,0,1,1.31891,9.6145Z" transform="translate(-19.8549 -41.18551)"/><path class="cls-5" d="M204.13079,442.3494a34.4908,34.4908,0,0,1-1.0134-8.4013,34.51172,34.51172,0,0,1,1.0134,8.4013Z" transform="translate(-19.8549 -41.18551)"/><path class="cls-5" d="M209.75309,440.9467a14.3754,14.3754,0,0,1-1.7974-7.4031,1043.806,1043.806,0,0,1,1.7974,7.4031Z" transform="translate(-19.8549 -41.18551)"/><path class="cls-5" d="M210.95769,436.0585a4.68213,4.68213,0,0,1,1.4204-.0942,12.0407,12.0407,0,0,1,3.816.7462,4.26808,4.26808,0,0,1,1.1751.6331,1.785,1.785,0,0,1,.7356,1.325,2.00993,2.00993,0,0,1-2.46079,1.7885,5.06149,5.06149,0,0,1-2.83721-2.0198,8.63787,8.63787,0,0,1-1.6051-3.3429,8.49513,8.49513,0,0,1,1.1959-6.9248,1.38267,1.38267,0,0,1,.8072-.4853,1.09439,1.09439,0,0,1,.9041.2818,2.43376,2.43376,0,0,1,.6806,1.4593,7.41178,7.41178,0,0,1-.1437,2.7191,7.55628,7.55628,0,0,1-1.8337,3.4298,5.92211,5.92211,0,0,1-.7934.7035c-.1986.1392-.307.2045-.3178.1902-.03-.0375.3788-.3408.9595-1.0282a7.81862,7.81862,0,0,0,1.6261-3.3758,7.20073,7.20073,0,0,0,.0759-2.5754,2.03446,2.03446,0,0,0-.5552-1.178.697.697,0,0,0-1.049.1756,8.48088,8.48088,0,0,0,.4505,9.6369,4.652,4.652,0,0,0,2.5205,1.8618,1.571,1.571,0,0,0,1.9439-1.3064,1.377,1.377,0,0,0-.5589-1.0243,3.96178,3.96178,0,0,0-1.0529-.6003,13.25757,13.25757,0,0,0-3.6956-.8873C211.46479,436.0843,210.95939,436.1005,210.95769,436.0585Z" transform="translate(-19.8549 -41.18551)"/><path class="cls-5" d="M229.04879,441.5104a1.18627,1.18627,0,0,1-.2737.0868c-.2117.0528-.48009.1195-.8152.2029-.756.1723-1.8101.4124-3.1506.7178-2.7418.603-6.7182,1.449-11.6584,2.4033-4.9413.9461-10.8424,2.0308-17.4592,2.9321a47.16579,47.16579,0,0,1-10.4893.523,22.57138,22.57138,0,0,1-5.4946-1.0507,15.151,15.151,0,0,1-2.6369-1.1714,8.15634,8.15634,0,0,1-2.3157-1.8657l.0397.0448a5.52106,5.52106,0,0,1-.9453-1.1343,7.07464,7.07464,0,0,1-.5529-5.8518,9.35331,9.35331,0,0,1,3.4848-4.5547,17.6715,17.6715,0,0,1,4.9524-2.4542c.8667-.2459,1.7107-.5438,2.5697-.738.86341-.1719,1.7069-.4013,2.5579-.519,6.8112-1.0757,13.0073-.5289,18.1548-.527,2.5808.0475,4.912-.0223,6.9549-.1475a46.45345,46.45345,0,0,0,5.20381-.6581q1.04983-.22065,1.87419-.3938.786-.2241,1.3497-.3847c.3432-.0945.6179-.1701.8338-.2296a1.27731,1.27731,0,0,1,.2904-.0616,1.23469,1.23469,0,0,1-.273.1119c-.2124.0724-.4824.1644-.8199.2795q-.56128.18165-1.3418.4343-.8229.1944-1.8733.4427a43.70077,43.70077,0,0,1-5.2217.7498c-2.0509.1535-4.3939.2493-6.9796.2254-5.15879.0432-11.3505-.4586-18.0725.6319-.8408.1193-1.6702.349-2.5212.5209-.846.1941-1.6743.4902-2.5265.7339a17.23414,17.23414,0,0,0-4.809,2.3936,8.85756,8.85756,0,0,0-3.29459,4.3028,6.56941,6.56941,0,0,0,.50039,5.4161,5.00489,5.00489,0,0,0,.8517,1.0236l.017.0166.023.0286a7.8004,7.8004,0,0,0,2.1481,1.7136,14.67951,14.67951,0,0,0,2.5422,1.1316,22.15618,22.15618,0,0,0,5.3721,1.0344,47.11181,47.11181,0,0,0,10.3854-.489c6.6039-.8723,12.5076-1.9184,17.4537-2.8176,4.9455-.9075,8.9313-1.6988,11.6848-2.2413,1.34861-.2652,2.4091-.4737,3.1697-.6233.3395-.0628.6114-.1132.8258-.153A1.20345,1.20345,0,0,1,229.04879,441.5104Z" transform="translate(-19.8549 -41.18551)"/><path class="cls-5" d="M189.30649,447.9492a17.83988,17.83988,0,0,1-.2634-2.7777c-.12309-1.7142-.3274-4.0778-.6737-6.6739-.3492-2.5965-.7741-4.9308-1.10639-6.617a17.82723,17.82723,0,0,1-.47671-2.7489,12.73553,12.73553,0,0,1,.836,2.6684,61.16834,61.16834,0,0,1,1.7886,13.3545A12.73052,12.73052,0,0,1,189.30649,447.9492Z" transform="translate(-19.8549 -41.18551)"/><polygon class="cls-18" points="198.037 385.833 204.924 403.083 210.269 402.093 200.033 385.254 198.037 385.833"/><path class="cls-5" d="M307.65089,379.7358c-1.1075.3692-72.2822-19.5753-101.0652-27.6687a27.34062,27.34062,0,0,0-22.25869,3.3685l-.34681.2245a27.34327,27.34327,0,0,0-11.7737,29.1517v.0001a27.3266,27.3266,0,0,0,12.3423,17.1149c18.9814,11.6285,59.1507,36.0917,60.3788,35.6158,1.6099-.6238,51.7759-1.9247,51.7759-1.9247l-60.3519-43.4036,28.7116,18.5559,42.5877-31.0344Z" transform="translate(-19.8549 -41.18551)"/><path class="cls-13" d="M248.22869,358.0769l15.1299-7.8266,14.8369,9.3009,55.5484,1.8148,8.0398,27.0432-80.3988-18.6379s-14.6336,1.2945-15.72989-1.9946S248.22869,358.0769,248.22869,358.0769Z" transform="translate(-19.8549 -41.18551)"/><path class="cls-5" d="M293.73839,401.4151,286.26,425.9725l.92979,7.4837h0a38.42519,38.42519,0,0,0,50.6806,3.4157h.0001a37.6559,37.6559,0,0,0,14.7228-30.0328l-.1126-25.6593Z" transform="translate(-19.8549 -41.18551)"/><path class="cls-15" d="M249.20429,401.5754c-.086.1153-8.767-6.2139-19.3871-14.1348-10.6239-7.9237-19.1637-14.4385-19.0777-14.5538s8.7652,6.2126,19.389,14.1363C240.74859,394.944,249.29029,401.4602,249.20429,401.5754Z" transform="translate(-19.8549 -41.18551)"/><path class="cls-14" d="M262.33869,355.1531a59.46023,59.46023,0,0,1-7.4002,2.6445,59.46393,59.46393,0,0,1-7.5598,2.1486,59.462,59.462,0,0,1,7.4009-2.6446A59.466,59.466,0,0,1,262.33869,355.1531Z" transform="translate(-19.8549 -41.18551)"/><path class="cls-14" d="M263.46989,359.764a15.7418,15.7418,0,0,1-2.5767.4844c-1.5934.2594-3.7869.6508-6.1844,1.2005-2.3977.5526-4.5422,1.1585-6.08879,1.621a15.72987,15.72987,0,0,1-2.52941.6894,11.27039,11.27039,0,0,1,2.4143-1.0391,54.3788,54.3788,0,0,1,12.33911-2.8367A11.28176,11.28176,0,0,1,263.46989,359.764Z" transform="translate(-19.8549 -41.18551)"/><path class="cls-14" d="M262.20309,363.9948a70.3967,70.3967,0,0,1-8.3353,1.9182,70.36721,70.36721,0,0,1-8.4375,1.4074,70.45693,70.45693,0,0,1,8.3362-1.9182A70.40826,70.40826,0,0,1,262.20309,363.9948Z" transform="translate(-19.8549 -41.18551)"/><path class="cls-15" d="M242.57509,321.7976l13.956,45.9215a1.33,1.33,0,0,0,1.1731.9396l38.0306,2.854a1.33025,1.33025,0,0,1,1.2306,1.3264v2.3743a1.33016,1.33016,0,0,1-1.3552,1.3299l-103.9611-1.9536a1.33015,1.33015,0,0,1-1.2177-.8556l-18.2827-47.8986a1.33011,1.33011,0,0,1,1.1805-1.803l67.911-3.1768A1.33013,1.33013,0,0,1,242.57509,321.7976Z" transform="translate(-19.8549 -41.18551)"/><path class="cls-1" d="M213.27969,341.5843a3.27683,3.27683,0,0,0-2.0562,2.3354,3.14631,3.14631,0,0,0,1.3434,2.8612,3.419,3.419,0,0,0,3.8006.1418,3.16758,3.16758,0,0,0,1.0367-3.8375c-.4596-1.2686-2.7806-2.155-4.1245-1.5009" transform="translate(-19.8549 -41.18551)"/><path class="cls-5" d="M230.12389,443.279l-10.9882-18.0768L299.938,361.8746a32.46876,32.46876,0,0,1,17.64809-7.2325h.0001A32.46844,32.46844,0,0,1,352.887,389.6802l-1.29091,15.4497-53.6345,17.235Z" transform="translate(-19.8549 -41.18551)"/><path class="cls-15" d="M333.74379,400.3591a1.20727,1.20727,0,0,1-.2135.199c-.1714.1412-.3889.3203-.6604.544-.6176.4929-1.4787,1.1801-2.5731,2.0537q-.84645.66825-1.8684,1.4751c-.6819.5412-1.4855,1.0424-2.3152,1.628q-1.2591.86325-2.68419,1.8404c-.47731.3225-.96021.667-1.471.997q-.78212.47085-1.60351.9655c-2.196,1.3106-4.5658,2.8119-7.2521,4.169-1.3323.6969-2.6912,1.4568-4.127,2.1668q-2.172,1.0296-4.4653,2.1167c-6.1515,2.8041-13.0413,5.6245-20.4272,8.136-14.7584,5.0858-28.4038,8.747-38.1763,11.7097-2.4501.7205-4.659,1.3954-6.5928,2.0073-1.9382.5983-3.6074,1.1147-4.9592,1.5743-1.3305.4323-2.3773.7724-3.128,1.0164-.3363.1035-.6057.1865-.818.2519a.14695.14695,0,1,1-.0178-.0502c.2079-.078.4717-.1771.801-.3008.7435-.2662,1.7803-.6375,3.0981-1.1094,1.34311-.4895,3.0042-1.0344,4.9354-1.6596,1.9271-.6389,4.1299-1.3389,6.5742-2.0822,9.7516-3.0547,23.3794-6.772,38.1124-11.8492,7.3744-2.5076,14.2515-5.3076,20.398-8.0803q2.28975-1.07295,4.4626-2.0911c1.4354-.7008,2.7938-1.4507,4.1269-2.1374,2.6878-1.3368,5.0603-2.815,7.26261-4.1018q.82394-.48525,1.60889-.9475c.5126-.3239.9974-.6621,1.4769-.9784q1.4316-.9558,2.6996-1.8024c.8355-.5728,1.6458-1.0612,2.3347-1.5893q1.0335-.7842,1.8917-1.4357c1.1186-.8396,1.9987-1.5003,2.6299-1.974.2848-.2071.5129-.3729.6927-.5036A1.24,1.24,0,0,1,333.74379,400.3591Z" transform="translate(-19.8549 -41.18551)"/><path class="cls-15" d="M335.70439,408.811a3.14206,3.14206,0,0,1-.8153.4268c-.5368.2465-1.3284.5683-2.318.9362A59.06327,59.06327,0,0,1,316.48,413.6316c-1.05341.0711-1.90731.1028-2.49791.0986a3.14439,3.14439,0,0,1-.9185-.0542,30.8922,30.8922,0,0,1,3.3829-.4111c2.087-.2329,4.9602-.6377,8.0913-1.3082,3.1291-.6747,5.9147-1.4858,7.91321-2.1308A30.892,30.892,0,0,1,335.70439,408.811Z" transform="translate(-19.8549 -41.18551)"/><path class="cls-15" d="M296.70419,364.9128c.0883.1136-17.2057,13.7028-38.6223,30.3486-21.42389,16.6516-38.8573,30.0538-38.9456,29.9403s17.2021-13.6999,38.626-30.3515C279.17889,378.2044,296.616,364.7993,296.70419,364.9128Z" transform="translate(-19.8549 -41.18551)"/><path class="cls-7" d="M292.03419,432.1134c-3.8758-2.0671-8.2269-.8452-11.9354.4048-2.4683.832-5.0334,2.1494-7.5405,1.4436-1.8132-.5104-3.1611-1.9795-4.5458-3.2565a28.5718,28.5718,0,0,0-20.88649-7.4837,8.50669,8.50669,0,0,0-5.73621,2.5933c-3.8067,4.1232-.9354,9.4891,2.4664,12.9564a37.59032,37.59032,0,0,0,22.7132,10.9569c7.089.7402,16.8368-.2393,24.02661-3.3176,4.43249-1.8978,6.70669-7.1265,4.38059-11.35A7.27606,7.27606,0,0,0,292.03419,432.1134Z" transform="translate(-19.8549 -41.18551)"/><g class="cls-12"><path d="M292.02569,435.4133c-3.876-2.0671-8.2271-.8452-11.9355.4048-2.4684.8321-5.0334,2.1494-7.5405,1.4436-1.8131-.5103-3.1612-1.9795-4.54569-3.2565a28.57345,28.57345,0,0,0-20.88661-7.4838,8.507,8.507,0,0,0-5.7362,2.5934,6.61468,6.61468,0,0,0-1.598,2.8903,15.067,15.067,0,0,0,4.0643,6.7662,37.59178,37.59178,0,0,0,22.7134,10.957c7.0888.7401,16.8367-.2395,24.0264-3.3177a8.767,8.767,0,0,0,5.1135-6.0942,7.42008,7.42008,0,0,0-.7327-1.9559A7.27546,7.27546,0,0,0,292.02569,435.4133Z" transform="translate(-19.8549 -41.18551)"/></g><path class="cls-5" d="M295.70079,440.3164a6.70588,6.70588,0,0,0-.95-2.2963,7.51191,7.51191,0,0,0-2.0736-2.028,8.285,8.285,0,0,0-3.563-1.364c-2.8778-.338-6.212.8733-9.9166,1.8756-1.831.4847-3.831,1.226-6.0199.9516a7.98352,7.98352,0,0,1-3.0966-1.0722,19.31367,19.31367,0,0,1-2.6618-2.0042,28.963,28.963,0,0,0-15.87329-7.5225,16.62036,16.62036,0,0,0-4.69131-.0278,10.24079,10.24079,0,0,0-3.6283,1.2661,9.23651,9.23651,0,0,0-2.2229,1.8845,22.55745,22.55745,0,0,0-1.4314,2.0657,8.03826,8.03826,0,0,1,1.275-2.1947,9.09557,9.09557,0,0,1,2.227-2.0036,10.36728,10.36728,0,0,1,3.721-1.3814,16.71447,16.71447,0,0,1,4.8034-.0375,27.65411,27.65411,0,0,1,5.3722,1.1972,31.07277,31.07277,0,0,1,5.5639,2.4558,23.1277,23.1277,0,0,1,2.7082,1.7631c.8627.6763,1.6788,1.4181,2.5165,2.1406a19.02256,19.02256,0,0,0,2.5861,1.9531,7.49177,7.49177,0,0,0,2.8969,1.0117c2.0282.2676,3.9725-.4252,5.8296-.9087,3.6872-.9651,7.0796-2.1729,10.088-1.7779a8.33936,8.33936,0,0,1,5.76111,3.6473,5.38833,5.38833,0,0,1,.71749,1.7506A2.46135,2.46135,0,0,1,295.70079,440.3164Z" transform="translate(-19.8549 -41.18551)"/><path class="cls-5" d="M295.70079,440.3164a6.70588,6.70588,0,0,0-.95-2.2963,7.51191,7.51191,0,0,0-2.0736-2.028,8.285,8.285,0,0,0-3.563-1.364c-2.8778-.338-6.212.8733-9.9166,1.8756-1.831.4847-3.831,1.226-6.0199.9516a7.98352,7.98352,0,0,1-3.0966-1.0722,19.31367,19.31367,0,0,1-2.6618-2.0042,28.963,28.963,0,0,0-15.87329-7.5225,16.62036,16.62036,0,0,0-4.69131-.0278,10.24079,10.24079,0,0,0-3.6283,1.2661,9.23651,9.23651,0,0,0-2.2229,1.8845,22.55745,22.55745,0,0,0-1.4314,2.0657,8.03826,8.03826,0,0,1,1.275-2.1947,9.09557,9.09557,0,0,1,2.227-2.0036,10.36728,10.36728,0,0,1,3.721-1.3814,16.71447,16.71447,0,0,1,4.8034-.0375,27.65411,27.65411,0,0,1,5.3722,1.1972,31.07277,31.07277,0,0,1,5.5639,2.4558,23.1277,23.1277,0,0,1,2.7082,1.7631c.8627.6763,1.6788,1.4181,2.5165,2.1406a19.02256,19.02256,0,0,0,2.5861,1.9531,7.49177,7.49177,0,0,0,2.8969,1.0117c2.0282.2676,3.9725-.4252,5.8296-.9087,3.6872-.9651,7.0796-2.1729,10.088-1.7779a8.33936,8.33936,0,0,1,5.76111,3.6473,5.38833,5.38833,0,0,1,.71749,1.7506A2.46135,2.46135,0,0,1,295.70079,440.3164Z" transform="translate(-19.8549 -41.18551)"/><path class="cls-5" d="M247.63139,439.3832a9.88738,9.88738,0,0,1,1.98461-1.375,57.1979,57.1979,0,0,1,10.52259-4.9467,9.881,9.881,0,0,1,2.3247-.651,12.66839,12.66839,0,0,1-2.1935.995c-1.3689.5702-3.2517,1.3722-5.2974,2.3328-2.0442.9621-3.8628,1.9002-5.1751,2.5905A12.67637,12.67637,0,0,1,247.63139,439.3832Z" transform="translate(-19.8549 -41.18551)"/><path class="cls-5" d="M248.96269,443.2599a70.13954,70.13954,0,0,1,7.5697-3.9489,70.13513,70.13513,0,0,1,7.7972-3.4804,70.16363,70.16363,0,0,1-7.5705,3.9492A70.17306,70.17306,0,0,1,248.96269,443.2599Z" transform="translate(-19.8549 -41.18551)"/><path class="cls-5" d="M265.01979,444.9407c-.0767.1217-4.20679-2.3426-9.22379-5.5035-5.01861-3.1619-9.02361-5.8229-8.94691-5.9446s4.20591,2.3421,9.2246,5.504C261.09059,442.1575,265.09639,444.819,265.01979,444.9407Z" transform="translate(-19.8549 -41.18551)"/><path class="cls-5" d="M267.34409,440.9191a12.31588,12.31588,0,0,1-2.0222-1.3515c-1.2151-.876-2.8911-2.0862-4.76689-3.3874-1.87721-1.3005-3.59861-2.4455-4.84521-3.276a12.30741,12.30741,0,0,1-1.9749-1.4194,10.46025,10.46025,0,0,1,2.1696,1.1069c1.3002.7528,3.0617,1.8542,4.9472,3.1606,1.8842,1.3069,3.5334,2.5699,4.6946,3.5233A10.464,10.464,0,0,1,267.34409,440.9191Z" transform="translate(-19.8549 -41.18551)"/></g></svg>